<svg width="54" height="54" viewBox="0 0 54 54" fill="none" xmlns="http://www.w3.org/2000/svg">
<circle cx="27" cy="27" r="26.5" transform="rotate(-180 27 27)" stroke="#333333"/>
<path d="M33.295 22.115C33.6844 21.7256 33.6844 21.0944 33.295 20.705V20.705C32.9056 20.3156 32.2744 20.3156 31.885 20.705L23.7071 28.8829C23.0771 29.5129 22 29.0667 22 28.1758L22 25C22 24.4477 21.5523 24 21 24V24C20.4477 24 20 24.4477 20 25L20 33C20 33.5523 20.4477 34 21 34L29 34C29.5523 34 30 33.5523 30 33V33C30 32.4477 29.5523 32 29 32L25.8242 32C24.9333 32 24.4871 30.9229 25.1171 30.2929L33.295 22.115Z" fill="#333333"/>
</svg>
