<svg width="76" height="76" viewBox="0 0 76 76" fill="none" xmlns="http://www.w3.org/2000/svg">
<circle cx="38" cy="38" r="38" fill="#333333"/>
<path d="M38 28.375C39.1603 28.375 40.2731 28.8359 41.0936 29.6564C41.9141 30.4769 42.375 31.5897 42.375 32.75C42.375 33.3245 42.2618 33.8934 42.042 34.4242C41.8221 34.955 41.4998 35.4373 41.0936 35.8436C40.6873 36.2498 40.205 36.5721 39.6742 36.792C39.1434 37.0118 38.5745 37.125 38 37.125C36.8397 37.125 35.7269 36.6641 34.9064 35.8436C34.0859 35.0231 33.625 33.9103 33.625 32.75C33.625 31.5897 34.0859 30.4769 34.9064 29.6564C35.7269 28.8359 36.8397 28.375 38 28.375ZM38 20.5C41.2489 20.5 44.3647 21.7906 46.6621 24.0879C48.9594 26.3853 50.25 29.5011 50.25 32.75C50.25 41.9375 38 55.5 38 55.5C38 55.5 25.75 41.9375 25.75 32.75C25.75 29.5011 27.0406 26.3853 29.3379 24.0879C31.6353 21.7906 34.7511 20.5 38 20.5V20.5ZM38 24C35.6794 24 33.4538 24.9219 31.8128 26.5628C30.1719 28.2038 29.25 30.4294 29.25 32.75C29.25 34.5 29.25 38 38 49.7425C46.75 38 46.75 34.5 46.75 32.75C46.75 30.4294 45.8281 28.2038 44.1872 26.5628C42.5462 24.9219 40.3206 24 38 24V24Z" fill="#F2F2F2"/>
</svg>
