<svg width="76" height="76" viewBox="0 0 76 76" fill="none" xmlns="http://www.w3.org/2000/svg">
<circle cx="38" cy="38" r="38" fill="#333333"/>
<path d="M38.0699 20.5C28.5149 20.5 20.7274 28.2875 20.7274 37.8425C20.7274 40.905 21.5324 43.88 23.0374 46.505L20.5874 55.5L29.7749 53.085C32.3124 54.4675 35.1649 55.2025 38.0699 55.2025C47.6249 55.2025 55.4124 47.415 55.4124 37.86C55.4124 33.2225 53.6099 28.865 50.3374 25.5925C47.0649 22.3025 42.7074 20.5 38.0699 20.5ZM38.0874 23.4225C41.9374 23.4225 45.5424 24.9275 48.2724 27.6575C50.9849 30.3875 52.4899 34.01 52.4899 37.86C52.4899 45.805 46.0149 52.2625 38.0699 52.2625C35.4799 52.2625 32.9424 51.58 30.7374 50.25L30.2124 49.9525L24.7524 51.3875L26.2049 46.0675L25.8549 45.5075C24.4199 43.25 23.6499 40.5725 23.6499 37.8425C23.6674 29.8975 30.1249 23.4225 38.0874 23.4225ZM31.9274 29.8275C31.6474 29.8275 31.1749 29.9325 30.7724 30.37C30.3874 30.8075 29.2499 31.875 29.2499 33.9925C29.2499 36.1275 30.8074 38.175 30.9999 38.4725C31.2449 38.77 34.0799 43.145 38.4374 45C39.4699 45.4725 40.2749 45.735 40.9049 45.9275C41.9374 46.26 42.8824 46.2075 43.6349 46.1025C44.4749 45.98 46.1899 45.0525 46.5574 44.0375C46.9249 43.0225 46.9249 42.165 46.8199 41.9725C46.6974 41.7975 46.4174 41.6925 45.9799 41.5C45.5424 41.255 43.4074 40.205 43.0224 40.065C42.6199 39.925 42.3749 39.855 42.0424 40.275C41.7624 40.7125 40.9224 41.6925 40.6774 41.9725C40.4149 42.27 40.1699 42.305 39.7499 42.095C39.2949 41.8675 37.8949 41.4125 36.2499 39.9425C34.9549 38.7875 34.0974 37.37 33.8349 36.9325C33.6249 36.5125 33.8174 36.25 34.0274 36.0575C34.2199 35.865 34.4999 35.55 34.6749 35.2875C34.9024 35.0425 34.9724 34.85 35.1124 34.57C35.2524 34.2725 35.1824 34.0275 35.0774 33.8175C34.9724 33.625 34.0974 31.455 33.7299 30.5975C33.3799 29.7575 33.0299 29.8625 32.7499 29.845C32.5049 29.845 32.2249 29.8275 31.9274 29.8275Z" fill="#F2F2F2"/>
</svg>
