<svg width="54" height="54" viewBox="0 0 54 54" fill="none" xmlns="http://www.w3.org/2000/svg">
<circle cx="27" cy="27" r="27" fill="#8873F0"/>
<path d="M20.705 31.885C20.3156 32.2744 20.3156 32.9056 20.705 33.295V33.295C21.0944 33.6844 21.7256 33.6844 22.115 33.295L30.2929 25.1171C30.9229 24.4871 32 24.9333 32 25.8242L32 29C32 29.5523 32.4477 30 33 30V30C33.5523 30 34 29.5523 34 29L34 21C34 20.4477 33.5523 20 33 20L25 20C24.4477 20 24 20.4477 24 21V21C24 21.5523 24.4477 22 25 22L28.1758 22C29.0667 22 29.5129 23.0771 28.8829 23.7071L20.705 31.885Z" fill="white"/>
</svg>
