<svg width="761" height="761" viewBox="0 0 761 761" fill="none" xmlns="http://www.w3.org/2000/svg">
<path d="M355 14.7224C370.779 5.61216 390.221 5.61216 406 14.7224L684.523 175.528C700.302 184.638 710.023 201.474 710.023 219.695V541.305C710.023 559.526 700.302 576.362 684.523 585.472L406 746.278C390.221 755.388 370.779 755.388 355 746.278L76.4773 585.472C60.6979 576.362 50.9773 559.526 50.9773 541.305V219.695C50.9773 201.474 60.6979 184.638 76.4773 175.528L355 14.7224Z" fill="#E8F2FF"/>
<path d="M640.194 286.805V410.415C640.194 423.277 633.333 435.162 622.194 441.592L399.097 570.397C387.959 576.828 374.235 576.828 363.097 570.397L140 441.592C128.862 435.162 122 423.277 122 410.415V286.805C122 273.944 128.862 262.059 140 255.628L363.097 126.823C374.235 120.392 387.959 120.392 399.097 126.823L622.194 255.628C633.333 262.059 640.194 273.944 640.194 286.805Z" fill="#FCDA69"/>
<path d="M125 467.573C123.98 466.984 122.98 466.371 122 465.733V474.415C122 487.277 128.862 499.162 140 505.592L363.097 634.397C374.235 640.828 387.959 640.828 399.097 634.397L510.646 569.995L622.194 505.592C633.333 499.162 640.194 487.277 640.194 474.415V465.733C639.214 466.371 638.214 466.984 637.194 467.573L414.097 596.378C393.677 608.168 368.518 608.168 348.097 596.378L125 467.573Z" fill="#7F85F6"/>
<path d="M122 544.415V529.733C122.98 530.371 123.98 530.984 125 531.573L348.097 660.378C368.518 672.168 393.677 672.168 414.097 660.378L637.194 531.573C638.214 530.984 639.214 530.371 640.194 529.733V544.415C640.194 557.277 633.333 569.162 622.194 575.592L399.097 704.397C387.959 710.828 374.235 710.828 363.097 704.397L140 575.592C128.862 569.162 122 557.277 122 544.415Z" fill="#1BB978"/>
</svg>
