<svg width="42" height="42" viewBox="0 0 42 42" fill="none" xmlns="http://www.w3.org/2000/svg">
<path fill-rule="evenodd" clip-rule="evenodd" d="M23.47 3.14559C18.9224 3.58742 15.3554 5.28971 12.8642 8.20716C11.9585 9.26774 11.5213 10.0692 11.1234 11.3987C10.678 12.8863 10.1618 15.6461 10.2667 15.9785C10.3174 16.139 10.2893 16.3135 10.2046 16.3662C9.87392 16.5715 9.42973 18.5364 9.28664 20.4262C9.15162 22.2101 9.09789 22.4487 8.6948 23.0535C7.86761 24.2947 7.77095 26.0011 8.44819 27.4069C8.83773 28.2155 8.92237 28.9117 8.67836 29.2995C8.60072 29.423 8.59235 29.5951 8.65979 29.6821C8.72722 29.7691 8.82388 30.2535 8.87457 30.7586C9.01157 32.1222 9.36291 33.1433 10.052 34.1807C10.8486 35.3801 13.1846 37.7633 13.943 38.1507C15.5316 38.9616 18.9576 39.2656 20.5454 38.7362C22.0176 38.2456 24.7001 36.823 25.721 35.9919C26.2652 35.5488 27.2043 34.5687 27.8079 33.8141C28.8602 32.4982 28.9304 32.4419 29.5222 32.4367C30.0007 32.4325 30.233 32.3322 30.556 31.9895L30.9728 31.5477L30.4663 31.9566C29.9101 32.4058 29.8522 32.4228 29.5441 32.2266C29.2353 32.0299 29.5091 31.1681 30.7059 28.5701C30.9403 28.061 31.9714 27.3791 32.1883 27.5895C32.2495 27.6491 32.2746 27.56 32.2438 27.3916C32.2079 27.1945 32.0465 27.069 31.7908 27.039C31.4804 27.0028 31.2589 27.1465 30.7776 27.6962C30.4388 28.0831 30.122 28.335 30.0734 28.256C29.9819 28.1073 30.217 26.6358 30.3727 26.3825C30.4213 26.3035 30.5248 26.2784 30.6027 26.3269C30.6806 26.3753 30.7444 26.3886 30.7444 26.3563C30.7444 26.3242 30.8479 25.6013 30.9746 24.7503C31.1722 23.4219 31.2653 23.142 31.6336 22.7721C31.8694 22.5351 32.2624 22.271 32.507 22.1851C32.9632 22.0249 33.041 21.8394 33.2595 20.3899C33.3301 19.9222 33.4096 19.816 33.6892 19.816C33.878 19.816 34.1147 19.7334 34.2151 19.6324C34.4669 19.3793 34.4387 17.1379 34.1745 16.3926C33.9204 15.6759 33.9955 15.4366 34.5684 15.1386C35.1082 14.8581 35.1428 14.3686 34.6657 13.7589C34.4782 13.5193 34.3477 13.1867 34.3759 13.0199C34.4039 12.8532 34.3801 12.2781 34.3231 11.7418C34.2218 10.7907 34.2011 10.7539 33.4714 10.2267C33.0599 9.92965 32.7233 9.56587 32.7233 9.41849C32.7233 9.27111 32.588 9.02731 32.4225 8.87672C32.2571 8.72628 32.1555 8.54783 32.1969 8.48049C32.2384 8.41315 32.1353 8.09375 31.9678 7.77083C31.7205 7.2938 31.4562 7.08673 30.557 6.66571C29.9484 6.38075 29.3254 6.01789 29.1724 5.85918C29.0196 5.70063 28.6941 5.53045 28.4493 5.48132C28.151 5.42133 28.0044 5.29905 28.0044 5.11019C28.0044 4.74763 27.6325 4.55388 26.6962 4.429L25.9442 4.32876L25.9987 3.75347C26.05 3.21247 26.0241 3.17237 25.5636 3.07978C25.2944 3.0256 24.9971 2.99071 24.9028 3.00219C24.8086 3.01366 24.1638 3.07825 23.47 3.14559ZM14.7116 14.9243C14.9912 15.0223 15.5044 15.5195 16.0542 16.2252C16.7793 17.1559 17.0221 17.3674 17.3658 17.3674C17.5976 17.3674 17.8298 17.2985 17.8815 17.2143C17.9333 17.1301 18.17 17.0613 18.4074 17.0613C18.7626 17.0613 18.929 17.2038 19.3448 17.8647C19.623 18.3067 19.9212 18.7189 20.0076 18.7807C20.2734 18.9706 20.8025 18.91 21.0035 18.6665C21.1793 18.4537 21.051 17.9191 20.5771 16.8896C20.5526 16.8365 20.6482 16.7483 20.7893 16.6938C21.0937 16.5764 21.5451 16.9482 21.8739 17.5876C22.1279 18.0816 22.8288 20.0883 22.8288 20.3218C22.8288 20.4045 22.5321 20.4343 22.1468 20.3907C21.7102 20.3413 21.3679 20.386 21.1954 20.515C20.6569 20.9176 21.3627 21.4311 22.8624 21.7274C23.0903 21.7724 23.3477 21.9426 23.4345 22.1056C23.5786 22.3764 23.5133 22.4175 22.6756 22.5832C22.1715 22.683 21.4545 22.9586 21.0825 23.196C20.3727 23.6485 19.5328 24.6773 19.3829 25.278C19.3343 25.4725 19.2715 25.6316 19.2432 25.6316C19.2147 25.6316 18.8694 25.4595 18.4758 25.249C17.6626 24.8144 17.1527 24.7716 16.5502 25.0876C16.1483 25.2983 16.1285 25.2908 16.0413 24.8954C15.8478 24.019 15.7799 23.8495 15.3452 23.1565C14.3053 21.4992 12.3165 20.7782 10.5318 21.4112L9.91776 21.629L10.056 21.1444C10.1319 20.8778 10.195 20.3494 10.196 19.9702C10.1997 18.5727 10.9768 16.4788 11.7836 15.6926C12.6018 14.8954 13.7611 14.5912 14.7116 14.9243ZM25.5204 19.9692C25.8781 20.9579 25.8564 20.9862 24.9473 20.7124C24.2203 20.4934 24.1148 20.0552 24.653 19.4914C24.8637 19.2707 25.0703 19.0814 25.1121 19.0706C25.154 19.0599 25.3377 19.4642 25.5204 19.9692ZM11.4529 19.7984C10.7042 20.5513 10.5469 21.4348 11.2847 20.7438C11.8018 20.2594 12.2771 20.1982 13.3314 20.4807C14.9253 20.9077 15.9361 20.7303 15.805 20.0465C15.735 19.6811 15.2104 19.5445 13.3911 19.4186L11.9312 19.3174L11.4529 19.7984ZM27.6963 20.2369C28.1434 21.3393 28.565 21.9586 28.8687 21.9586C29.1564 21.9586 29.1048 22.4464 28.6401 24.1237C28.4617 24.7676 28.2161 26.386 28.0945 27.7202C27.8464 30.4424 27.4471 31.8424 26.5143 33.2607C25.6746 34.5375 24.7247 35.2722 21.1543 37.4075L19.556 38.3634L18.0337 38.2831C16.2462 38.1888 14.5452 37.7786 13.8266 37.2687C13.1839 36.8125 11.3904 34.7799 10.5343 33.5375C9.68029 32.2983 9.28801 31.2053 9.17674 29.7558L9.08586 28.5704L10.0339 29.0427C10.7864 29.4178 11.1753 29.5146 11.92 29.513C13.695 29.509 14.906 28.646 15.7689 26.7697C16.2909 25.6349 16.6587 25.3256 17.4856 25.3256C17.7205 25.3256 18.1392 25.4804 18.4164 25.6699C18.8682 25.9787 18.9457 26.144 19.1686 27.2732C19.6679 29.8033 21.3204 31.126 23.7742 30.9597C25.3236 30.8545 26.5421 30.0497 27.2777 28.6457C27.7646 27.7161 27.7601 25.9722 27.2684 25.0195C26.7583 24.0313 25.9364 23.2385 25.031 22.8613C24.2907 22.5527 24.2547 22.5125 24.4121 22.1709C24.6737 21.6031 25.4259 21.6766 26.1576 22.3412C26.86 22.9791 26.9388 22.9946 26.9388 22.4943C26.9388 22.2838 27.0073 22.1117 27.0911 22.1117C27.2915 22.1117 27.287 20.7168 27.0848 20.1823C26.9221 19.7516 26.9821 19.3569 27.2105 19.3569C27.2815 19.3569 27.5001 19.753 27.6963 20.2369ZM12.8685 21.7246C13.2815 21.8484 13.8718 22.1599 14.1803 22.4165C14.7334 22.8763 15.3984 24.0593 15.5925 24.9281C15.6854 25.3439 15.6595 25.3302 15.1882 24.7142C14.5303 23.8541 13.8285 23.4891 12.8324 23.4891C11.5676 23.4891 10.4986 24.0743 10.4986 24.7668C10.4986 25.0706 10.5011 25.0706 10.8412 24.7592C11.3398 24.3026 11.791 24.0995 12.2772 24.1133C12.513 24.1199 12.6188 24.1606 12.5124 24.2036C12.2399 24.3138 11.8687 25.0848 11.8687 25.5403C11.8687 26.1134 12.169 26.6659 12.5342 26.7645C13.1032 26.918 13.6972 26.8629 14.1797 26.612C14.5423 26.4235 14.6754 26.4108 14.7647 26.5562C14.9211 26.8104 15.2176 26.2495 15.2176 25.6994C15.2176 25.3523 15.2531 25.3176 15.4444 25.4774C15.8836 25.8438 15.1247 27.6033 14.1953 28.374C11.8618 30.3094 8.22366 28.4632 8.39796 25.4322L8.44363 24.6369L8.71565 25.096C8.96028 25.5092 8.97763 25.5169 8.88873 25.1725C8.83439 24.9621 8.7292 24.7244 8.65491 24.6445C8.45824 24.4329 8.48792 24.1383 8.76543 23.5504C9.04826 22.9513 9.27188 22.8761 9.28984 23.3743C9.32561 24.3762 9.25924 25.2334 9.1262 25.4834C8.93683 25.8389 8.93013 26.4437 9.11676 26.3277C9.30582 26.2101 9.73753 24.263 9.73753 23.5278C9.73753 23.2035 9.66142 22.8616 9.56826 22.7679C9.25589 22.4539 10.8646 21.5817 11.879 21.5151C12.0104 21.5065 12.4556 21.6008 12.8685 21.7246ZM25.0615 23.31C26.7618 24.1822 27.5698 26.1075 27.0254 27.9899C26.1104 31.1546 21.8412 31.6148 20.0711 28.7395C19.6534 28.061 19.4283 26.5459 19.6319 25.7852C19.809 25.1243 20.5573 24.0613 21.1632 23.6101C22.2135 22.8279 23.8724 22.7001 25.0615 23.31ZM13.3238 25.0048C13.1706 25.2539 12.786 25.2079 12.679 24.9275C12.5491 24.5874 12.9546 24.3623 13.2186 24.6277C13.3332 24.7429 13.3806 24.9125 13.3238 25.0048ZM21.6871 25.0007C21.0609 25.3931 20.448 26.09 20.3252 26.5499C20.2273 26.9157 20.2416 26.9114 20.6505 26.4515C20.8858 26.187 21.2753 25.8462 21.5165 25.6941L21.9547 25.4175L21.69 25.9321C21.4023 26.4916 21.4416 27.4611 21.7682 27.8567C22.0071 28.1461 23.2346 28.1425 23.7421 27.8508C24.1859 27.5958 24.5628 27.5537 24.4271 27.7742C24.3754 27.8584 24.3973 27.9273 24.4758 27.9273C24.5542 27.9273 24.7033 27.7216 24.8068 27.4703C24.991 27.0233 24.9648 26.4354 24.7368 25.8995C24.5445 25.4475 24.9088 25.5951 25.5875 26.2441C26.3168 26.9417 26.5161 26.9212 26.1237 26.1887C25.4601 24.95 22.8735 24.2573 21.6871 25.0007ZM22.9524 25.9783C23.013 26.2945 22.5737 26.5077 22.3417 26.2744C22.1097 26.0412 22.3217 25.5995 22.6362 25.6604C22.7821 25.6886 22.9244 25.8317 22.9524 25.9783ZM16.2952 26.7922C16.3025 26.9705 16.3386 27.0067 16.3871 26.8848C16.4311 26.7743 16.4256 26.6422 16.3751 26.5914C16.3246 26.5406 16.2886 26.6309 16.2952 26.7922ZM15.4622 29.6998C15.259 30.2321 15.373 30.9376 15.7123 31.2488C16.194 31.6901 17.0788 31.9425 17.7206 31.8214C18.569 31.6614 19.3885 30.4679 18.871 30.1464C18.7872 30.0944 18.7187 30.1147 18.7187 30.1915C18.7187 30.2684 18.5507 30.5135 18.3455 30.7362C18.0461 31.061 17.8336 31.1412 17.2723 31.1412C16.0705 31.1412 15.3503 30.5487 15.5982 29.7638C15.7122 29.4025 15.5965 29.348 15.4622 29.6998ZM13.3909 32.536C13.3909 32.7223 14.6915 33.3592 15.6639 33.6492C16.6827 33.9533 19.5776 33.9662 20.4693 33.6707C21.0347 33.4833 20.9232 33.4677 18.9148 33.4529C17.1093 33.4394 16.6085 33.3831 15.8886 33.1124C14.7573 32.6868 13.3909 32.3715 13.3909 32.536Z" fill="#333333"/>
</svg>
