<svg width="24" height="24" viewBox="0 0 24 24" fill="none" xmlns="http://www.w3.org/2000/svg">
<g clip-path="url(#clip0_95_722)">
<path fill-rule="evenodd" clip-rule="evenodd" d="M18.012 4.21589C18.9558 3.91515 19.8457 4.80505 19.5448 5.74866L15.2058 19.3609C14.8769 20.3928 13.4666 20.5163 12.9633 19.5574L10.2035 14.3002C10.0907 14.0849 9.91586 13.9084 9.70178 13.7931L4.15125 10.8044C3.20312 10.2939 3.33316 8.89495 4.35911 8.56799L18.012 4.21589ZM5.04062 9.75916L18.1945 5.56617L14.0159 18.6754L11.3918 13.6766C11.3414 13.5805 11.2851 13.4882 11.2234 13.3999L15.0863 9.53708C15.3244 9.29889 15.3244 8.91264 15.0863 8.67445C14.9448 8.53303 14.7511 8.47554 14.5672 8.50207C14.4416 8.52029 14.3204 8.57768 14.2236 8.67445L10.3045 12.5935L5.04062 9.75916Z" fill="white"/>
</g>
<defs>
<clipPath id="clip0_95_722">
<rect width="24" height="24" fill="white"/>
</clipPath>
</defs>
</svg>
