<svg width="24" height="24" viewBox="0 0 24 24" fill="none" xmlns="http://www.w3.org/2000/svg">
<path fill-rule="evenodd" clip-rule="evenodd" d="M13.4115 1.79755C10.8129 2.05002 8.77459 3.02276 7.35108 4.68987C6.83352 5.29592 6.5837 5.75391 6.35632 6.51362C6.1018 7.36366 5.80683 8.94069 5.86677 9.13064C5.89573 9.22238 5.87973 9.32207 5.83128 9.35216C5.64235 9.46952 5.38852 10.5923 5.30676 11.6722C5.2296 12.6915 5.1989 12.8279 4.96856 13.1735C4.49588 13.8827 4.44065 14.8578 4.82764 15.6612C5.05024 16.1232 5.0986 16.521 4.95917 16.7426C4.9148 16.8132 4.91002 16.9116 4.94855 16.9613C4.98709 17.011 5.04232 17.2878 5.07129 17.5764C5.14958 18.3556 5.35034 18.9391 5.74412 19.5319C6.19931 20.2173 7.53418 21.5791 7.96754 21.8005C8.87532 22.2639 10.833 22.4375 11.7403 22.135C12.5816 21.8547 14.1144 21.0418 14.6978 20.5668C15.0088 20.3137 15.5454 19.7536 15.8903 19.3224C16.4916 18.5705 16.5317 18.5383 16.8699 18.5353C17.1433 18.533 17.2761 18.4756 17.4607 18.2798L17.6988 18.0273L17.4094 18.261C17.0916 18.5176 17.0585 18.5274 16.8825 18.4152C16.706 18.3029 16.8625 17.8104 17.5463 16.3258C17.6803 16.035 18.2694 15.6453 18.3934 15.7655C18.4284 15.7995 18.4427 15.7486 18.4252 15.6524C18.4046 15.5398 18.3124 15.4681 18.1663 15.4509C17.9889 15.4302 17.8624 15.5123 17.5873 15.8265C17.3937 16.0475 17.2127 16.1915 17.1849 16.1464C17.1326 16.0614 17.2669 15.2205 17.3559 15.0758C17.3837 15.0306 17.4428 15.0163 17.4874 15.044C17.5319 15.0717 17.5683 15.0793 17.5683 15.0608C17.5683 15.0425 17.6275 14.6294 17.6999 14.1431C17.8128 13.384 17.866 13.224 18.0764 13.0127C18.2112 12.8773 18.4358 12.7263 18.5755 12.6773C18.8362 12.5857 18.8807 12.4797 19.0055 11.6515C19.0459 11.3842 19.0913 11.3235 19.2511 11.3235C19.3589 11.3235 19.4942 11.2763 19.5516 11.2186C19.6955 11.0739 19.6794 9.79318 19.5284 9.36729C19.3832 8.95775 19.4261 8.82097 19.7535 8.6507C20.0619 8.4904 20.0817 8.21072 19.8091 7.86231C19.7019 7.72536 19.6274 7.53533 19.6435 7.44C19.6595 7.34477 19.6459 7.01612 19.6133 6.70968C19.5554 6.16616 19.5436 6.14518 19.1266 5.8439C18.8915 5.67416 18.6992 5.46628 18.6992 5.38206C18.6992 5.29785 18.6218 5.15853 18.5273 5.07248C18.4327 4.98651 18.3747 4.88454 18.3984 4.84606C18.422 4.80759 18.3631 4.62507 18.2674 4.44055C18.1261 4.16796 17.9751 4.04963 17.4613 3.80905C17.1135 3.64621 16.7575 3.43886 16.6701 3.34817C16.5827 3.25757 16.3967 3.16032 16.2569 3.13225C16.0864 3.09797 16.0026 3.0281 16.0026 2.92018C16.0026 2.713 15.7901 2.60229 15.2551 2.53093L14.8254 2.47365L14.8565 2.14491C14.8858 1.83576 14.871 1.81285 14.6079 1.75994C14.454 1.72898 14.2841 1.70905 14.2303 1.7156C14.1765 1.72216 13.808 1.75907 13.4115 1.79755ZM8.40673 8.52827C8.56652 8.58424 8.85975 8.86837 9.17394 9.27161C9.58825 9.80342 9.72699 9.92427 9.9234 9.92427C10.0559 9.92427 10.1885 9.88492 10.2181 9.83682C10.2477 9.78872 10.3829 9.74937 10.5186 9.74937C10.7216 9.74937 10.8167 9.83079 11.0543 10.2085C11.2132 10.4611 11.3836 10.6966 11.433 10.7319C11.5849 10.8404 11.8873 10.8058 12.0021 10.6667C12.1026 10.545 12.0292 10.2395 11.7584 9.65125C11.7444 9.6209 11.7991 9.57053 11.8797 9.53939C12.0537 9.47232 12.3116 9.68474 12.4995 10.0501C12.6446 10.3324 13.0451 11.4791 13.0451 11.6126C13.0451 11.6598 12.8756 11.6768 12.6554 11.6519C12.406 11.6237 12.2103 11.6492 12.1118 11.7229C11.804 11.953 12.2074 12.2464 13.0643 12.4157C13.1946 12.4414 13.3417 12.5387 13.3912 12.6318C13.4736 12.7866 13.4363 12.81 12.9576 12.9048C12.6695 12.9618 12.2598 13.1193 12.0472 13.2549C11.6416 13.5135 11.1617 14.1014 11.076 14.4446C11.0483 14.5558 11.0124 14.6467 10.9962 14.6467C10.9799 14.6467 10.7826 14.5483 10.5577 14.4281C10.093 14.1797 9.80162 14.1552 9.45734 14.3358C9.2277 14.4563 9.21639 14.452 9.16655 14.226C9.05599 13.7252 9.01719 13.6283 8.76876 13.2324C8.17457 12.2853 7.03811 11.8733 6.0183 12.235L5.6674 12.3595L5.74638 12.0826C5.78979 11.9303 5.8258 11.6283 5.82641 11.4116C5.82849 10.6131 6.27255 9.41652 6.73357 8.96728C7.20112 8.51174 7.8636 8.33788 8.40673 8.52827ZM14.5832 11.4111C14.7876 11.976 14.7752 11.9922 14.2557 11.8357C13.8403 11.7106 13.78 11.4602 14.0876 11.138C14.2079 11.0119 14.326 10.9037 14.3499 10.8975C14.3738 10.8914 14.4788 11.1225 14.5832 11.4111ZM6.54464 11.3135C6.11676 11.7436 6.02691 12.2485 6.44852 11.8537C6.74401 11.5769 7.01558 11.5419 7.61804 11.7033C8.52886 11.9473 9.10644 11.846 9.03155 11.4552C8.99153 11.2464 8.69178 11.1684 7.65214 11.0964L6.81795 11.0386L6.54464 11.3135ZM15.8266 11.564C16.082 12.1939 16.323 12.5479 16.4965 12.5479C16.6609 12.5479 16.6314 12.8266 16.3659 13.7851C16.2639 14.153 16.1236 15.0778 16.0541 15.8402C15.9123 17.3957 15.6842 18.1957 15.1511 19.0062C14.6713 19.7358 14.1285 20.1556 12.0883 21.3758L11.1749 21.922L10.3051 21.8761C9.28363 21.8222 8.31166 21.5879 7.901 21.2965C7.53375 21.0358 6.50889 19.8743 6.01969 19.1644C5.5317 18.4563 5.30754 17.8317 5.24395 17.0034L5.19202 16.326L5.73377 16.5959C6.16373 16.8102 6.38598 16.8656 6.81151 16.8646C7.82585 16.8623 8.51781 16.3692 9.01093 15.297C9.3092 14.6486 9.51936 14.4718 9.99186 14.4718C10.1261 14.4718 10.3654 14.5603 10.5238 14.6686C10.7819 14.8451 10.8262 14.9395 10.9536 15.5847C11.2389 17.0305 12.1832 17.7864 13.5854 17.6913C14.4707 17.6312 15.167 17.1713 15.5873 16.369C15.8656 15.8378 15.863 14.8413 15.582 14.2969C15.2906 13.7322 14.8209 13.2792 14.3035 13.0637C13.8805 12.8874 13.8599 12.8643 13.9499 12.6692C14.0994 12.3447 14.5292 12.3867 14.9473 12.7665C15.3487 13.131 15.3937 13.1398 15.3937 12.8539C15.3937 12.7337 15.4329 12.6353 15.4807 12.6353C15.5953 12.6353 15.5927 11.8383 15.4771 11.5328C15.3842 11.2867 15.4184 11.0612 15.549 11.0612C15.5895 11.0612 15.7144 11.2875 15.8266 11.564ZM7.35352 12.4141C7.58951 12.4849 7.92684 12.6629 8.10315 12.8095C8.41917 13.0722 8.79921 13.7482 8.91011 14.2447C8.96318 14.4823 8.94839 14.4744 8.67908 14.1224C8.30313 13.631 7.90213 13.4224 7.3329 13.4224C6.61014 13.4224 5.99933 13.7568 5.99933 14.1525C5.99933 14.3261 6.00072 14.3261 6.19505 14.1482C6.48001 13.8873 6.73784 13.7712 7.01567 13.7791C7.15041 13.7829 7.21086 13.8061 7.15006 13.8307C6.99435 13.8937 6.7822 14.3343 6.7822 14.5945C6.7822 14.922 6.95382 15.2377 7.1625 15.2941C7.48765 15.3818 7.82706 15.3503 8.10281 15.2069C8.31 15.0992 8.38603 15.0919 8.43709 15.175C8.52642 15.3203 8.69587 14.9998 8.69587 14.6855C8.69587 14.4871 8.71614 14.4673 8.82548 14.5586C9.07643 14.7679 8.64281 15.7734 8.11168 16.2138C6.77828 17.3197 4.69934 16.2648 4.79894 14.5328L4.82503 14.0783L4.98048 14.3406C5.12026 14.5768 5.13018 14.5811 5.07938 14.3844C5.04833 14.2641 4.98822 14.1283 4.94577 14.0827C4.83339 13.9617 4.85035 13.7934 5.00892 13.4575C5.17054 13.1151 5.29832 13.0721 5.30858 13.3568C5.32903 13.9294 5.2911 14.4192 5.21508 14.562C5.10687 14.7651 5.10304 15.1108 5.20968 15.0445C5.31772 14.9773 5.56441 13.8646 5.56441 13.4445C5.56441 13.2592 5.52092 13.0638 5.46768 13.0103C5.28919 12.8309 6.20845 12.3325 6.78811 12.2944C6.86318 12.2895 7.11761 12.3434 7.35352 12.4141ZM14.3209 13.3201C15.2926 13.8185 15.7543 14.9186 15.4432 15.9943C14.9203 17.8027 12.4808 18.0657 11.4693 16.4226C11.2306 16.035 11.102 15.1692 11.2183 14.7344C11.3195 14.3568 11.7471 13.7494 12.0933 13.4916C12.6935 13.0446 13.6415 12.9716 14.3209 13.3201ZM7.61369 14.2885C7.52618 14.4309 7.30637 14.4046 7.24522 14.2444C7.17102 14.05 7.40275 13.9214 7.55358 14.073C7.61908 14.1389 7.64613 14.2358 7.61369 14.2885ZM12.3927 14.2862C12.0349 14.5104 11.6847 14.9086 11.6145 15.1714C11.5585 15.3805 11.5667 15.378 11.8004 15.1152C11.9348 14.9641 12.1574 14.7693 12.2952 14.6824L12.5457 14.5244L12.3944 14.8184C12.23 15.1381 12.2524 15.6921 12.4391 15.9182C12.5756 16.0836 13.277 16.0815 13.567 15.9148C13.8206 15.7691 14.036 15.745 13.9585 15.8711C13.9289 15.9192 13.9414 15.9585 13.9863 15.9585C14.0311 15.9585 14.1163 15.841 14.1754 15.6974C14.2807 15.4419 14.2657 15.106 14.1354 14.7998C14.0255 14.5415 14.2337 14.6258 14.6216 14.9967C15.0383 15.3953 15.1522 15.3836 14.9279 14.9651C14.5487 14.2572 13.0707 13.8614 12.3927 14.2862ZM13.1158 14.8448C13.1504 15.0255 12.8993 15.1473 12.7668 15.014C12.6342 14.8807 12.7554 14.6284 12.9351 14.6632C13.0184 14.6793 13.0998 14.761 13.1158 14.8448ZM9.31164 15.3099C9.31581 15.4118 9.33643 15.4325 9.36418 15.3628C9.38932 15.2996 9.38618 15.2242 9.3573 15.1951C9.32843 15.1661 9.3079 15.2177 9.31164 15.3099ZM8.83566 16.9714C8.71953 17.2756 8.78468 17.6787 8.97857 17.8565C9.25379 18.1087 9.75944 18.2529 10.1262 18.1838C10.6109 18.0923 11.0793 17.4103 10.7835 17.2266C10.7357 17.1968 10.6965 17.2085 10.6965 17.2524C10.6965 17.2963 10.6005 17.4364 10.4832 17.5636C10.3121 17.7492 10.1907 17.795 9.87 17.795C9.18325 17.795 8.77172 17.4565 8.91333 17.008C8.97849 16.8015 8.91238 16.7703 8.83566 16.9714ZM7.65205 18.5921C7.65205 18.6985 8.39525 19.0625 8.95091 19.2282C9.5331 19.402 11.1873 19.4093 11.6969 19.2404C12.0199 19.1334 11.9562 19.1245 10.8086 19.116C9.77683 19.1083 9.49065 19.0761 9.0793 18.9214C8.43283 18.6782 7.65205 18.4981 7.65205 18.5921Z" fill="#333333"/>
</svg>
