<svg width="72" height="72" viewBox="0 0 72 72" fill="none" xmlns="http://www.w3.org/2000/svg">
<circle cx="36" cy="36" r="36" fill="#F2F2F2"/>
<path d="M31.8 26H40.2C43.4 26 46 28.6 46 31.8V40.2C46 41.7383 45.3889 43.2135 44.3012 44.3012C43.2135 45.3889 41.7383 46 40.2 46H31.8C28.6 46 26 43.4 26 40.2V31.8C26 30.2617 26.6111 28.7865 27.6988 27.6988C28.7865 26.6111 30.2617 26 31.8 26ZM31.6 28C30.6452 28 29.7295 28.3793 29.0544 29.0544C28.3793 29.7295 28 30.6452 28 31.6V40.4C28 42.39 29.61 44 31.6 44H40.4C41.3548 44 42.2705 43.6207 42.9456 42.9456C43.6207 42.2705 44 41.3548 44 40.4V31.6C44 29.61 42.39 28 40.4 28H31.6ZM41.25 29.5C41.5815 29.5 41.8995 29.6317 42.1339 29.8661C42.3683 30.1005 42.5 30.4185 42.5 30.75C42.5 31.0815 42.3683 31.3995 42.1339 31.6339C41.8995 31.8683 41.5815 32 41.25 32C40.9185 32 40.6005 31.8683 40.3661 31.6339C40.1317 31.3995 40 31.0815 40 30.75C40 30.4185 40.1317 30.1005 40.3661 29.8661C40.6005 29.6317 40.9185 29.5 41.25 29.5ZM36 31C37.3261 31 38.5979 31.5268 39.5355 32.4645C40.4732 33.4021 41 34.6739 41 36C41 37.3261 40.4732 38.5979 39.5355 39.5355C38.5979 40.4732 37.3261 41 36 41C34.6739 41 33.4021 40.4732 32.4645 39.5355C31.5268 38.5979 31 37.3261 31 36C31 34.6739 31.5268 33.4021 32.4645 32.4645C33.4021 31.5268 34.6739 31 36 31ZM36 33C35.2044 33 34.4413 33.3161 33.8787 33.8787C33.3161 34.4413 33 35.2044 33 36C33 36.7956 33.3161 37.5587 33.8787 38.1213C34.4413 38.6839 35.2044 39 36 39C36.7956 39 37.5587 38.6839 38.1213 38.1213C38.6839 37.5587 39 36.7956 39 36C39 35.2044 38.6839 34.4413 38.1213 33.8787C37.5587 33.3161 36.7956 33 36 33Z" fill="black"/>
</svg>
