<svg width="72" height="72" viewBox="0 0 72 72" fill="none" xmlns="http://www.w3.org/2000/svg">
<circle cx="36" cy="36" r="36" fill="#F2F2F2"/>
<path d="M43 27C43.5304 27 44.0391 27.2107 44.4142 27.5858C44.7893 27.9609 45 28.4696 45 29V43C45 43.5304 44.7893 44.0391 44.4142 44.4142C44.0391 44.7893 43.5304 45 43 45H29C28.4696 45 27.9609 44.7893 27.5858 44.4142C27.2107 44.0391 27 43.5304 27 43V29C27 28.4696 27.2107 27.9609 27.5858 27.5858C27.9609 27.2107 28.4696 27 29 27H43ZM42.5 42.5V37.2C42.5 36.3354 42.1565 35.5062 41.5452 34.8948C40.9338 34.2835 40.1046 33.94 39.24 33.94C38.39 33.94 37.4 34.46 36.92 35.24V34.13H34.13V42.5H36.92V37.57C36.92 36.8 37.54 36.17 38.31 36.17C38.6813 36.17 39.0374 36.3175 39.2999 36.5801C39.5625 36.8426 39.71 37.1987 39.71 37.57V42.5H42.5ZM30.88 32.56C31.3256 32.56 31.7529 32.383 32.0679 32.0679C32.383 31.7529 32.56 31.3256 32.56 30.88C32.56 29.95 31.81 29.19 30.88 29.19C30.4318 29.19 30.0019 29.3681 29.685 29.685C29.3681 30.0019 29.19 30.4318 29.19 30.88C29.19 31.81 29.95 32.56 30.88 32.56ZM32.27 42.5V34.13H29.5V42.5H32.27Z" fill="black"/>
</svg>
