<svg width="72" height="72" viewBox="0 0 72 72" fill="none" xmlns="http://www.w3.org/2000/svg">
<circle cx="36" cy="36" r="36" fill="#F2F2F2"/>
<path d="M36.04 26C30.58 26 26.13 30.45 26.13 35.91C26.13 37.66 26.59 39.36 27.45 40.86L26.05 46L31.3 44.62C32.75 45.41 34.38 45.83 36.04 45.83C41.5 45.83 45.9501 41.38 45.9501 35.92C45.9501 33.27 44.92 30.78 43.05 28.91C41.18 27.03 38.69 26 36.04 26ZM36.05 27.67C38.25 27.67 40.31 28.53 41.87 30.09C43.42 31.65 44.2801 33.72 44.2801 35.92C44.2801 40.46 40.58 44.15 36.04 44.15C34.56 44.15 33.11 43.76 31.85 43L31.55 42.83L28.43 43.65L29.26 40.61L29.06 40.29C28.24 39 27.8 37.47 27.8 35.91C27.81 31.37 31.5 27.67 36.05 27.67ZM32.53 31.33C32.37 31.33 32.1 31.39 31.87 31.64C31.65 31.89 31 32.5 31 33.71C31 34.93 31.89 36.1 32 36.27C32.14 36.44 33.76 38.94 36.25 40C36.84 40.27 37.3 40.42 37.66 40.53C38.25 40.72 38.79 40.69 39.22 40.63C39.7 40.56 40.68 40.03 40.89 39.45C41.1 38.87 41.1 38.38 41.04 38.27C40.97 38.17 40.81 38.11 40.56 38C40.31 37.86 39.09 37.26 38.87 37.18C38.64 37.1 38.5 37.06 38.31 37.3C38.15 37.55 37.67 38.11 37.53 38.27C37.38 38.44 37.24 38.46 37 38.34C36.74 38.21 35.94 37.95 35 37.11C34.26 36.45 33.77 35.64 33.62 35.39C33.5 35.15 33.61 35 33.73 34.89C33.84 34.78 34 34.6 34.1 34.45C34.23 34.31 34.27 34.2 34.35 34.04C34.43 33.87 34.39 33.73 34.33 33.61C34.27 33.5 33.77 32.26 33.56 31.77C33.36 31.29 33.16 31.35 33 31.34C32.86 31.34 32.7 31.33 32.53 31.33Z" fill="black"/>
</svg>
