<svg width="76" height="76" viewBox="0 0 76 76" fill="none" xmlns="http://www.w3.org/2000/svg">
<circle cx="38" cy="38" r="38" fill="#333333"/>
<path d="M51.319 47.0481C50.8208 44.0267 48.1368 41.8611 45.0792 42.0098C42.0217 42.1584 39.5627 44.5812 39.3659 47.6348C33.1984 47.4419 31.0087 45.9995 31.3663 43.0664C31.4989 41.9696 32.1618 41.383 33.3792 41.0977C34.1185 40.9249 34.9382 40.9008 35.6815 40.9691C35.7498 40.9772 35.8221 40.9812 35.8904 40.9892C36.3444 41.0977 36.8065 41.1901 37.2685 41.2624C38.6386 41.4874 40.0328 41.5999 41.3587 41.5276C45.0873 41.3267 47.6266 39.6834 47.7551 36.1959C47.8797 32.8169 45.5574 30.4223 41.8127 28.8191C40.6114 28.3048 39.3377 27.9071 38.0641 27.6057C37.4895 27.4691 37.0074 27.3767 36.6498 27.3164C36.3324 24.2669 33.777 21.9406 30.7114 21.9164C27.6458 21.8923 25.0502 24.1705 24.6806 27.216C24.3109 30.2615 26.2877 33.0941 29.269 33.8013C32.2502 34.5084 35.2917 32.8651 36.3284 29.9803C36.706 30.0486 37.0797 30.1249 37.4534 30.2133C38.5864 30.4785 39.7194 30.8321 40.7641 31.2821C43.6047 32.4955 45.1556 34.0986 45.0833 36.0995C45.019 37.8914 43.7333 38.7191 41.2181 38.8557C40.1132 38.916 38.9038 38.8196 37.7105 38.6227C37.377 38.5664 37.0717 38.5102 36.8025 38.4499C36.6458 38.4178 36.5373 38.3897 36.4891 38.3776L36.3645 38.3535C36.2761 38.3414 36.1275 38.3214 35.9346 38.3013C34.9301 38.2089 33.8413 38.241 32.7806 38.4861C30.5627 39.0044 29.0078 40.3825 28.7185 42.737C28.0877 47.8075 31.8766 50.158 39.8078 50.3267C40.977 53.1553 44.0828 54.662 47.0239 53.8223C49.969 52.9825 51.8172 50.0696 51.319 47.0481V47.0481ZM30.6511 31.2901C30.2116 31.2901 29.7763 31.2035 29.3703 31.0353C28.9642 30.867 28.5952 30.6205 28.2844 30.3096C27.9737 29.9988 27.7271 29.6298 27.5589 29.2237C27.3908 28.8176 27.3042 28.3824 27.3042 27.9428C27.3043 27.5033 27.3909 27.0681 27.5591 26.662C27.7273 26.2559 27.9739 25.8869 28.2847 25.5762C28.5955 25.2654 28.9645 25.0188 29.3706 24.8507C29.7767 24.6825 30.212 24.5959 30.6515 24.596C31.5392 24.596 32.3905 24.9487 33.0182 25.5764C33.6459 26.2042 33.9984 27.0555 33.9984 27.9432C33.9983 28.8309 33.6457 29.6823 33.0179 30.3099C32.3902 30.9376 31.5388 31.2902 30.6511 31.2901ZM45.3766 51.3714C44.937 51.3713 44.5018 51.2847 44.0957 51.1165C43.6896 50.9483 43.3207 50.7017 43.0099 50.3909C42.6991 50.0801 42.4526 49.7111 42.2844 49.305C42.1162 48.8989 42.0297 48.4636 42.0297 48.0241C42.0297 47.5845 42.1163 47.1493 42.2845 46.7432C42.4528 46.3372 42.6993 45.9682 43.0102 45.6574C43.321 45.3466 43.69 45.1001 44.0961 44.9319C44.5022 44.7637 44.9374 44.6772 45.377 44.6772C46.2647 44.6773 47.116 45.03 47.7436 45.6577C48.3713 46.2854 48.7239 47.1368 48.7238 48.0245C48.7238 48.9122 48.3711 49.7635 47.7434 50.3912C47.1156 51.0188 46.2643 51.3714 45.3766 51.3714V51.3714Z" fill="white"/>
</svg>
