<svg width="76" height="76" viewBox="0 0 76 76" fill="none" xmlns="http://www.w3.org/2000/svg">
<circle cx="38" cy="38" r="38" fill="#333333"/>
<path d="M32.0206 36.0081C31.9845 35.6585 31.9644 35.305 31.9644 34.9474C31.9644 34.3085 32.0247 33.6858 32.1372 33.0791C32.1653 32.9344 32.0889 32.7858 31.9564 32.7255C31.4099 32.4804 30.9077 32.1429 30.4738 31.717C29.9624 31.2212 29.5601 30.6243 29.2924 29.9644C29.0246 29.3044 28.8974 28.5959 28.9188 27.884C28.955 26.5942 29.4733 25.3688 30.3773 24.4447C31.3697 23.4282 32.7037 22.8737 34.122 22.8898C35.4037 22.9018 36.6412 23.396 37.5773 24.2719C37.8947 24.5692 38.168 24.8987 38.397 25.2523C38.4773 25.3768 38.634 25.4291 38.7706 25.3809C39.4778 25.1358 40.2251 24.963 40.9925 24.8826C41.2175 24.8585 41.3461 24.6175 41.2456 24.4166C39.9398 21.8331 37.272 20.0492 34.1863 20.0009C29.7345 19.9326 26.022 23.5849 26.022 28.0367C26.022 30.5599 27.1831 32.8099 29.0032 34.2844C27.7255 34.875 26.5483 35.6907 25.5278 36.7112C23.326 38.909 22.0805 41.8099 22.0001 44.9076C21.999 44.9505 22.0065 44.9932 22.0222 45.0331C22.0379 45.073 22.0614 45.1094 22.0914 45.1401C22.1213 45.1708 22.1571 45.1952 22.1966 45.2119C22.2362 45.2285 22.2786 45.2371 22.3215 45.2371H24.5755C24.7483 45.2371 24.893 45.1005 24.897 44.9277C24.9733 42.5974 25.9175 40.4157 27.5769 38.7603C28.7581 37.5791 30.2046 36.7594 31.7836 36.3617C31.9363 36.3175 32.0407 36.1688 32.0206 36.0081ZM50.1211 34.9474C50.1211 30.5518 46.5894 26.98 42.2099 26.9117C37.7581 26.8434 34.0497 30.4956 34.0497 34.9474C34.0497 37.4706 35.2148 39.7206 37.0309 41.1951C35.74 41.7935 34.5648 42.6151 33.5595 43.6219C31.3577 45.8197 30.1122 48.7206 30.0318 51.8143C30.0307 51.8572 30.0382 51.8999 30.0539 51.9398C30.0696 51.9797 30.0931 52.0161 30.1231 52.0468C30.153 52.0775 30.1888 52.1019 30.2283 52.1186C30.2679 52.1352 30.3103 52.1438 30.3532 52.1438H32.6032C32.776 52.1438 32.9206 52.0072 32.9247 51.8344C33.001 49.5041 33.9452 47.3224 35.6046 45.667C37.3363 43.9353 39.6345 42.9831 42.0854 42.9831C46.5211 42.9831 50.1211 39.3871 50.1211 34.9474ZM45.7215 38.5835C44.7492 39.5559 43.4595 40.0902 42.0854 40.0902C40.7113 40.0902 39.4215 39.5559 38.4492 38.5835C37.964 38.1009 37.5806 37.5257 37.3218 36.8921C37.063 36.2586 36.934 35.5795 36.9425 34.8951C36.9546 33.5773 37.4809 32.3036 38.401 31.3594C39.3653 30.371 40.655 29.8206 42.0331 29.8045C43.3952 29.7925 44.7171 30.3228 45.6894 31.2751C46.6858 32.2514 47.2322 33.5572 47.2322 34.9474C47.2282 36.3215 46.6939 37.6112 45.7215 38.5835Z" fill="white"/>
<path d="M51.1732 49.2419C51.3607 48.9941 51.4645 48.6906 51.4645 48.3747C51.4645 47.8736 51.1843 47.3993 50.7334 47.1348C50.6174 47.0667 50.4852 47.0309 50.3506 47.031H47.6743L47.7412 45.6593C47.7569 45.3279 47.6397 45.0131 47.412 44.7732C47.3003 44.6549 47.1655 44.5608 47.0159 44.4967C46.8664 44.4326 46.7053 44.3998 46.5426 44.4004C45.9622 44.4004 45.4488 44.791 45.2948 45.3502L44.3361 48.8212H42.893C42.6955 48.8212 42.5359 48.9808 42.5359 49.1783V53.2408C42.5359 53.4383 42.6955 53.5979 42.893 53.5979H49.604C49.7066 53.5979 49.8071 53.5779 49.8997 53.5377C50.431 53.3111 50.7736 52.7921 50.7736 52.2162C50.7736 52.0756 50.7535 51.9372 50.7133 51.8033C50.9008 51.5555 51.0046 51.252 51.0046 50.9361C51.0046 50.7955 50.9845 50.6571 50.9444 50.5232C51.1319 50.2754 51.2357 49.9718 51.2357 49.656C51.2334 49.5154 51.2133 49.3758 51.1732 49.2419ZM43.3395 52.7944V49.6247H44.2435V52.7944H43.3395ZM50.4421 48.8546L50.1977 49.0667L50.3529 49.3502C50.404 49.4436 50.4305 49.5484 50.4299 49.6549C50.4299 49.839 50.3495 50.0142 50.2111 50.1348L49.9667 50.3468L50.1218 50.6303C50.1729 50.7237 50.1994 50.8285 50.1988 50.935C50.1988 51.1191 50.1185 51.2944 49.9801 51.4149L49.7357 51.627L49.8908 51.9104C49.9419 52.0038 49.9684 52.1087 49.9678 52.2151C49.9678 52.4651 49.8205 52.6906 49.5928 52.7933H44.9578V49.589L46.0683 45.5656C46.0969 45.4625 46.1584 45.3715 46.2433 45.3064C46.3283 45.2414 46.4322 45.2058 46.5392 45.2051C46.6241 45.2051 46.7078 45.2296 46.7747 45.2799C46.8852 45.3625 46.9444 45.4875 46.9377 45.6203L46.8305 47.8346H50.3395C50.5381 47.9562 50.6609 48.1616 50.6609 48.3747C50.6609 48.5589 50.5805 48.733 50.4421 48.8546Z" fill="white"/>
<path d="M51.1732 49.2419C51.3607 48.9941 51.4645 48.6906 51.4645 48.3747C51.4645 47.8736 51.1843 47.3993 50.7334 47.1348C50.6174 47.0667 50.4852 47.0309 50.3506 47.031H47.6743L47.7412 45.6593C47.7569 45.3279 47.6397 45.0131 47.412 44.7732C47.3003 44.6549 47.1655 44.5608 47.0159 44.4967C46.8664 44.4326 46.7053 44.3998 46.5426 44.4004C45.9622 44.4004 45.4488 44.791 45.2948 45.3502L44.3361 48.8212H42.893C42.6955 48.8212 42.5359 48.9808 42.5359 49.1783V53.2408C42.5359 53.4383 42.6955 53.5979 42.893 53.5979H49.604C49.7066 53.5979 49.8071 53.5779 49.8997 53.5377C50.431 53.3111 50.7736 52.7921 50.7736 52.2162C50.7736 52.0756 50.7535 51.9372 50.7133 51.8033C50.9008 51.5555 51.0046 51.252 51.0046 50.9361C51.0046 50.7955 50.9845 50.6571 50.9444 50.5232C51.1319 50.2754 51.2357 49.9718 51.2357 49.656C51.2334 49.5154 51.2133 49.3758 51.1732 49.2419ZM43.3395 52.7944V49.6247H44.2435V52.7944H43.3395ZM50.4421 48.8546L50.1977 49.0667L50.3529 49.3502C50.404 49.4436 50.4305 49.5484 50.4299 49.6549C50.4299 49.839 50.3495 50.0142 50.2111 50.1348L49.9667 50.3468L50.1218 50.6303C50.1729 50.7237 50.1994 50.8285 50.1988 50.935C50.1988 51.1191 50.1185 51.2944 49.9801 51.4149L49.7357 51.627L49.8908 51.9104C49.9419 52.0038 49.9684 52.1087 49.9678 52.2151C49.9678 52.4651 49.8205 52.6906 49.5928 52.7933H44.9578V49.589L46.0683 45.5656C46.0969 45.4625 46.1584 45.3715 46.2433 45.3064C46.3283 45.2414 46.4322 45.2058 46.5392 45.2051C46.6241 45.2051 46.7078 45.2296 46.7747 45.2799C46.8852 45.3625 46.9444 45.4875 46.9377 45.6203L46.8305 47.8346H50.3395C50.5381 47.9562 50.6609 48.1616 50.6609 48.3747C50.6609 48.5589 50.5805 48.733 50.4421 48.8546Z" stroke="white"/>
</svg>
