<svg width="76" height="76" viewBox="0 0 76 76" fill="none" xmlns="http://www.w3.org/2000/svg">
<circle cx="38" cy="38" r="38" fill="#333333"/>
<g clip-path="url(#clip0_184_828)">
<path d="M55.8396 45.0038L55.8316 44.9958C54.0597 41.2471 51.3155 39.3185 47.6633 39.3185C44.011 39.3185 41.2668 41.2511 39.491 44.9958V44.9998C39.3838 45.2287 39.3282 45.4783 39.3282 45.731C39.3282 45.9838 39.3838 46.2334 39.491 46.4623C41.2668 50.2069 44.011 52.1355 47.6633 52.1355C51.3155 52.1355 54.0597 50.2029 55.8356 46.4583C56.0526 45.9962 56.0526 45.4618 55.8396 45.0038ZM47.6633 49.5641C45.1682 49.5641 43.3481 48.3587 41.9941 45.727C43.3441 43.0953 45.1682 41.89 47.6633 41.89C50.1584 41.89 51.9785 43.0953 53.3325 45.727C51.9825 48.3587 50.1584 49.5641 47.6633 49.5641Z" fill="white"/>
<path d="M45.433 45.7471C45.433 46.3439 45.6701 46.9161 46.092 47.3381C46.514 47.7601 47.0863 47.9971 47.683 47.9971C48.2798 47.9971 48.8521 47.7601 49.274 47.3381C49.696 46.9161 49.933 46.3439 49.933 45.7471C49.933 45.1504 49.696 44.5781 49.274 44.1561C48.8521 43.7342 48.2798 43.4971 47.683 43.4971C47.0863 43.4971 46.514 43.7342 46.092 44.1561C45.6701 44.5781 45.433 45.1504 45.433 45.7471ZM22.8929 26.7426H51.1786V36.9078H54.0714V25.1355C54.0714 24.4243 53.4969 23.8498 52.7857 23.8498H21.2857C20.5746 23.8498 20 24.4243 20 25.1355V46.0284C20 46.7395 20.5746 47.3141 21.2857 47.3141H35.4286V44.4212H22.8929V26.7426Z" fill="white"/>
<path d="M46.5542 31.0114L45.0756 29.5328C45.0152 29.473 44.9336 29.4395 44.8486 29.4395C44.7636 29.4395 44.682 29.473 44.6216 29.5328L37.2368 36.9257L33.7774 33.4623C33.717 33.4025 33.6354 33.3689 33.5504 33.3689C33.4654 33.3689 33.3838 33.4025 33.3234 33.4623L27.5256 39.2601C27.4658 39.3205 27.4322 39.4021 27.4322 39.4871C27.4322 39.5721 27.4658 39.6537 27.5256 39.7141L29.0042 41.1927C29.1287 41.3172 29.3337 41.3172 29.4582 41.1927L33.5484 37.1025L37.0078 40.5659C37.1323 40.6904 37.3372 40.6904 37.4618 40.5659L46.5542 31.4654C46.6828 31.3409 46.6828 31.136 46.5542 31.0114Z" fill="white"/>
</g>
<defs>
<clipPath id="clip0_184_828">
<rect width="36" height="36" fill="white" transform="translate(20 20)"/>
</clipPath>
</defs>
</svg>
