<svg width="76" height="76" viewBox="0 0 76 76" fill="none" xmlns="http://www.w3.org/2000/svg">
<circle cx="38" cy="38" r="38" fill="#333333"/>
<path d="M38.1604 44.4737C38.1604 44.6504 38.297 44.7951 38.4617 44.7951H45.8947C46.0595 44.7951 46.1961 44.6504 46.1961 44.4737V42.5451C46.1961 42.3683 46.0595 42.2237 45.8947 42.2237H38.4617C38.297 42.2237 38.1604 42.3683 38.1604 42.5451V44.4737ZM30.3296 44.7187L38.0438 38.25C38.1965 38.1214 38.1965 37.8844 38.0438 37.7558L30.3296 31.2911C30.283 31.2515 30.226 31.2261 30.1655 31.2179C30.1049 31.2097 30.0432 31.219 29.9878 31.2448C29.9324 31.2706 29.8855 31.3118 29.8528 31.3634C29.8201 31.4151 29.8029 31.475 29.8032 31.5362V34.0553C29.8032 34.1518 29.8434 34.2402 29.9197 34.3004L34.3313 38.0049L29.9197 41.7094C29.8838 41.7394 29.8548 41.7769 29.8347 41.8192C29.8146 41.8615 29.8039 41.9076 29.8032 41.9545V44.4737C29.8032 44.7469 30.1206 44.8955 30.3296 44.7187ZM52.7854 21.9335H23.2139C22.5028 21.9335 21.9282 22.508 21.9282 23.2192V52.7906C21.9282 53.5018 22.5028 54.0763 23.2139 54.0763H52.7854C53.4965 54.0763 54.0711 53.5018 54.0711 52.7906V23.2192C54.0711 22.508 53.4965 21.9335 52.7854 21.9335ZM51.1782 51.1835H24.8211V24.8263H51.1782V51.1835Z" fill="white"/>
</svg>
