<svg width="76" height="76" viewBox="0 0 76 76" fill="none" xmlns="http://www.w3.org/2000/svg">
<circle cx="38" cy="38" r="38" fill="#333333"/>
<g clip-path="url(#clip0_184_829)">
<path d="M32.2143 46.5325H27.5536V41.8718C27.5536 41.695 27.4089 41.5503 27.2321 41.5503H25.3036C25.1268 41.5503 24.9821 41.695 24.9821 41.8718V46.5325H20.3214C20.1446 46.5325 20 46.6771 20 46.8539V48.7825C20 48.9593 20.1446 49.1039 20.3214 49.1039H24.9821V53.7646C24.9821 53.9414 25.1268 54.0861 25.3036 54.0861H27.2321C27.4089 54.0861 27.5536 53.9414 27.5536 53.7646V49.1039H32.2143C32.3911 49.1039 32.5357 48.9593 32.5357 48.7825V46.8539C32.5357 46.6771 32.3911 46.5325 32.2143 46.5325Z" fill="white"/>
<path d="M54.0714 29.5843L48.9286 32.5455V26.4383C48.9286 25.02 47.7754 23.8669 46.3571 23.8669H22.5714C21.1531 23.8669 20 25.02 20 26.4383V40.5812H22.8929V26.7597H46.0357V49.2597H35.4286V52.1526H46.3571C47.7754 52.1526 48.9286 50.9995 48.9286 49.5812V43.474L54.0714 46.4352C54.9272 46.9294 56 46.3106 56 45.3263V30.6972C56 29.7088 54.9272 29.0901 54.0714 29.5843ZM53.1071 42.5499L48.9286 40.1472V35.8763L53.1071 33.4696V42.5499Z" fill="white"/>
<path d="M30.2839 31.8879C30.4607 31.8879 30.6053 31.7433 30.6053 31.5665V29.6379C30.6053 29.4612 30.4607 29.3165 30.2839 29.3165H25.7839C25.6071 29.3165 25.4625 29.4612 25.4625 29.6379V31.5665C25.4625 31.7433 25.6071 31.8879 25.7839 31.8879H30.2839Z" fill="white"/>
</g>
<defs>
<clipPath id="clip0_184_829">
<rect width="36" height="36" fill="white" transform="translate(20 20)"/>
</clipPath>
</defs>
</svg>
