<svg width="76" height="76" viewBox="0 0 76 76" fill="none" xmlns="http://www.w3.org/2000/svg">
<circle cx="38" cy="38" r="38" fill="#333333"/>
<path d="M53.1182 45.2876C51.4106 44.2993 49.3294 44.5644 47.9271 45.8019L45.7977 44.5685V38.4734C45.7977 37.8426 45.4602 37.256 44.9137 36.9426L39.4494 33.7966V31.1006C41.2253 30.4979 42.503 28.8185 42.503 26.8376C42.503 24.3506 40.4901 22.3376 38.003 22.3376C35.516 22.3376 33.503 24.3506 33.503 26.8376C33.503 28.8185 34.7807 30.4979 36.5566 31.1006V33.7966L31.0923 36.9426C30.5459 37.256 30.2084 37.8426 30.2084 38.4734V44.5644L28.0789 45.7979C26.6767 44.5604 24.5914 44.2952 22.8878 45.2836C20.7383 46.5292 20.007 49.2774 21.2405 51.4269C22.478 53.5765 25.2142 54.3158 27.3557 53.0743C29.0633 52.0859 29.8749 50.1412 29.5093 48.301L31.466 47.164L37.1151 50.4185C37.3883 50.5751 37.6936 50.6555 37.999 50.6555C38.3044 50.6555 38.6097 50.5751 38.8829 50.4185L44.528 47.168L46.4847 48.3051C46.1191 50.1412 46.9347 52.0899 48.6383 53.0783C50.7798 54.3198 53.52 53.5845 54.7535 51.431C55.991 49.2774 55.2597 46.5292 53.1182 45.2876V45.2876ZM26.078 50.8484C25.8598 50.9748 25.6187 51.0567 25.3687 51.0896C25.1186 51.1225 24.8645 51.1055 24.6211 51.0398C24.3776 50.9741 24.1495 50.8609 23.95 50.7066C23.7504 50.5524 23.5834 50.3603 23.4584 50.1412C22.928 49.2211 23.2414 48.0399 24.1615 47.5095C24.3797 47.3831 24.6208 47.3011 24.8708 47.2683C25.1209 47.2354 25.375 47.2523 25.6184 47.3181C25.8619 47.3838 26.09 47.497 26.2895 47.6512C26.4891 47.8055 26.6562 47.9976 26.7811 48.2167C27.3115 49.1368 26.9981 50.318 26.078 50.8484ZM36.0704 26.8376C36.0807 26.333 36.2884 25.8524 36.649 25.4992C37.0096 25.1459 37.4942 24.948 37.999 24.948C38.5038 24.948 38.9884 25.1459 39.349 25.4992C39.7096 25.8524 39.9173 26.333 39.9276 26.8376C39.9173 27.3423 39.7096 27.8228 39.349 28.1761C38.9884 28.5294 38.5038 28.7273 37.999 28.7273C37.4942 28.7273 37.0096 28.5294 36.649 28.1761C36.2884 27.8228 36.0807 27.3423 36.0704 26.8376V26.8376ZM42.9008 44.7653L37.999 47.5899L33.0972 44.7653V39.1243L37.999 36.2997L42.9008 39.1243V44.7653V44.7653ZM52.5396 50.1452C52.0093 51.0653 50.8361 51.3827 49.92 50.8524C49.0039 50.322 48.6865 49.1408 49.2169 48.2207C49.7472 47.3006 50.9204 46.9832 51.8365 47.5135C52.7566 48.0439 53.07 49.2211 52.5396 50.1452Z" fill="white"/>
</svg>
