<svg width="76" height="76" viewBox="0 0 76 76" fill="none" xmlns="http://www.w3.org/2000/svg">
<circle cx="38" cy="38" r="38" fill="#333333"/>
<path d="M48.5 53.75H27.5C26.5335 53.75 25.75 52.9665 25.75 52L25.75 24C25.75 23.0335 26.5335 22.25 27.5 22.25L40.7354 22.25C41.2229 22.25 41.6883 22.4533 42.0195 22.811L49.7841 31.1968C50.0836 31.5203 50.25 31.9449 50.25 32.3858L50.25 52C50.25 52.9665 49.4665 53.75 48.5 53.75Z" stroke="white" stroke-width="2" stroke-linecap="round" stroke-linejoin="round"/>
<path d="M42.2071 39.0429C41.8166 38.6524 41.1834 38.6524 40.7929 39.0429C40.4024 39.4334 40.4024 40.0666 40.7929 40.4571L42.2071 39.0429ZM45 43.25L45.7071 43.9571C46.0976 43.5666 46.0976 42.9334 45.7071 42.5429L45 43.25ZM40.7929 46.0429C40.4024 46.4334 40.4024 47.0666 40.7929 47.4571C41.1834 47.8476 41.8166 47.8476 42.2071 47.4571L40.7929 46.0429ZM40.7929 40.4571L44.2929 43.9571L45.7071 42.5429L42.2071 39.0429L40.7929 40.4571ZM44.2929 42.5429L40.7929 46.0429L42.2071 47.4571L45.7071 43.9571L44.2929 42.5429Z" fill="white"/>
<path d="M33.7929 47.4571C34.1834 47.8476 34.8166 47.8476 35.2071 47.4571C35.5976 47.0666 35.5976 46.4334 35.2071 46.0429L33.7929 47.4571ZM31 43.25L30.2929 42.5429C29.9024 42.9334 29.9024 43.5666 30.2929 43.9571L31 43.25ZM35.2071 40.4571C35.5976 40.0666 35.5976 39.4334 35.2071 39.0429C34.8166 38.6524 34.1834 38.6524 33.7929 39.0429L35.2071 40.4571ZM35.2071 46.0429L31.7071 42.5429L30.2929 43.9571L33.7929 47.4571L35.2071 46.0429ZM31.7071 43.9571L35.2071 40.4571L33.7929 39.0429L30.2929 42.5429L31.7071 43.9571Z" fill="white"/>
<path d="M50.25 32.75L41.5 32.75C40.5335 32.75 39.75 31.9665 39.75 31L39.75 22.25" stroke="white" stroke-width="2" stroke-linecap="round" stroke-linejoin="round"/>
</svg>
