<svg width="118" height="112" viewBox="0 0 118 112" fill="none" xmlns="http://www.w3.org/2000/svg">
<circle cx="58.8782" cy="58.501" r="46.5" stroke="#333333" stroke-width="2"/>
<circle cx="58.8781" cy="58.5004" r="27.2865" stroke="#333333" stroke-width="2"/>
<path d="M52.1134 63.7615C51.7229 64.152 51.7229 64.7852 52.1134 65.1757L52.2042 65.2665C52.5947 65.657 53.2279 65.657 53.6184 65.2665L62.5082 56.3768C63.1381 55.7468 64.2153 56.193 64.2153 57.0839L64.2153 60.704C64.2153 61.2563 64.663 61.704 65.2153 61.704L65.3501 61.704C65.9024 61.704 66.3501 61.2563 66.3501 60.704L66.3501 52.0298C66.3501 51.4775 65.9024 51.0298 65.3501 51.0298L56.6759 51.0298C56.1237 51.0298 55.6759 51.4775 55.6759 52.0298L55.6759 52.1646C55.6759 52.7169 56.1237 53.1646 56.6759 53.1646L60.296 53.1646C61.1869 53.1646 61.6331 54.2418 61.0031 54.8717L52.1134 63.7615Z" fill="#8873F0"/>
<path d="M19.6388 40.3194L26.0402 46.5595L25.5358 47.7142L16.6078 47.2582L17.0738 46.1916L24.7347 46.6702L19.1777 41.375L19.6388 40.3194Z" fill="black"/>
<path d="M29.9283 39.9744C29.5567 40.4657 29.1073 40.828 28.58 41.0611C28.0574 41.2878 27.5051 41.3616 26.9231 41.2825C26.3394 41.1921 25.7764 40.9419 25.234 40.5317C24.698 40.1264 24.3127 39.6545 24.0781 39.1159C23.8419 38.5662 23.7673 38.0083 23.8543 37.4422C23.935 36.8713 24.1635 36.337 24.5399 35.8393C24.9163 35.3416 25.3682 34.9762 25.8955 34.7431C26.4164 34.5052 26.968 34.4258 27.5501 34.5049C28.137 34.5776 28.7016 34.8191 29.244 35.2293C29.7864 35.6394 30.1732 36.1226 30.4046 36.6787C30.6345 37.2236 30.7066 37.7847 30.6211 38.362C30.5356 38.9392 30.3047 39.4767 29.9283 39.9744ZM29.1626 39.3954C29.399 39.0827 29.5476 38.7337 29.6084 38.3483C29.6691 37.963 29.6154 37.5764 29.4474 37.1885C29.2842 36.7942 28.992 36.4379 28.5708 36.1194C28.1497 35.8009 27.7296 35.6136 27.3107 35.5576C26.8917 35.5015 26.5107 35.5544 26.1676 35.7162C25.8182 35.8732 25.5253 36.1081 25.2888 36.4207C25.0475 36.7398 24.8989 37.0888 24.843 37.4678C24.7856 37.8355 24.8433 38.2102 25.0162 38.5916C25.189 38.9731 25.4861 39.3231 25.9072 39.6416C26.3347 39.9649 26.7531 40.161 27.1625 40.2298C27.5766 40.2923 27.956 40.2482 28.3006 40.0975C28.6388 39.9421 28.9261 39.708 29.1626 39.3954Z" fill="black"/>
<path d="M28.3234 30.0677C28.1726 30.211 27.9954 30.28 27.7918 30.2748C27.5882 30.2695 27.4148 30.1915 27.2715 30.0407C27.1283 29.8899 27.0593 29.7127 27.0645 29.5092C27.0697 29.3056 27.1477 29.1322 27.2985 28.9889C27.4435 28.8512 27.6149 28.7876 27.8127 28.7984C28.0163 28.8036 28.1897 28.8816 28.333 29.0324C28.4762 29.1832 28.5452 29.3604 28.54 29.564C28.5406 29.7621 28.4684 29.93 28.3234 30.0677ZM29.4417 30.4784L33.9709 35.2461L33.1792 35.9982L28.65 31.2305L29.4417 30.4784Z" fill="black"/>
<path d="M33.2321 28.6399C33.1636 28.2233 33.2093 27.8269 33.3693 27.4506C33.5356 27.0696 33.8249 26.7272 34.2371 26.4235L34.9063 27.3315L34.6745 27.5023C33.6892 28.2285 33.5904 29.1261 34.3783 30.1952L36.4999 33.0738L35.6209 33.7217L31.7194 28.4281L32.5985 27.7802L33.2321 28.6399Z" fill="black"/>
<path d="M41.9973 23.3484L43.4499 26.9419C43.5698 27.2386 43.7183 27.4245 43.8954 27.4996C44.0694 27.5673 44.3122 27.5382 44.6237 27.4123L45.3691 27.111L45.7154 27.9676L44.8031 28.3364C44.2394 28.5643 43.7642 28.6054 43.3774 28.4597C42.9906 28.314 42.6773 27.9445 42.4375 27.3512L40.9849 23.7577L40.195 24.077L39.8577 23.2426L40.6476 22.9233L40.027 21.388L41.0394 20.9787L41.66 22.514L43.2509 21.8709L43.5882 22.7053L41.9973 23.3484Z" fill="black"/>
<path d="M50.3576 26.7495C49.7535 26.8701 49.1769 26.8425 48.6278 26.6666C48.0866 26.4892 47.6246 26.1776 47.242 25.7319C46.8655 25.2768 46.6108 24.7158 46.4776 24.049C46.346 23.39 46.3713 22.7813 46.5534 22.2228C46.7419 21.6549 47.0566 21.1882 47.4976 20.8228C47.937 20.4495 48.4626 20.2018 49.0746 20.0796C49.6865 19.9574 50.267 19.9842 50.816 20.1601C51.3635 20.3282 51.8286 20.635 52.2113 21.0807C52.6019 21.5248 52.8637 22.0803 52.9969 22.7471C53.13 23.414 53.0985 24.0321 52.9022 24.6016C52.7122 25.1616 52.3936 25.6291 51.9463 26.0039C51.4991 26.3788 50.9695 26.6273 50.3576 26.7495ZM50.1696 25.8081C50.554 25.7313 50.8968 25.569 51.1981 25.3212C51.4994 25.0734 51.716 24.7487 51.848 24.3471C51.9877 23.9439 52.0059 23.4835 51.9025 22.9657C51.7991 22.4479 51.6094 22.0289 51.3333 21.7088C51.0573 21.3887 50.7373 21.1752 50.3733 21.0684C50.0078 20.9538 49.6328 20.9348 49.2484 21.0116C48.8562 21.0899 48.5133 21.2522 48.2199 21.4984C47.9327 21.7353 47.727 22.0537 47.603 22.4537C47.4789 22.8538 47.4686 23.3127 47.572 23.8305C47.677 24.3561 47.8596 24.7805 48.12 25.1038C48.3881 25.4255 48.7011 25.6445 49.0588 25.7607C49.4149 25.869 49.7851 25.8848 50.1696 25.8081Z" fill="black"/>
<path d="M61.1503 19.3923L60.9683 25.9658L59.8768 25.9355L59.9036 24.9639C59.6864 25.294 59.3872 25.5498 59.0061 25.7314C58.6331 25.9051 58.2227 25.9858 57.7749 25.9734C57.2631 25.9592 56.8061 25.8425 56.4041 25.6233C56.0022 25.3961 55.6872 25.0673 55.459 24.6368C55.2388 24.2065 55.1371 23.6875 55.154 23.0798L55.2605 19.2292L56.3401 19.2591L56.2375 22.9657C56.2196 23.6135 56.3697 24.1178 56.6878 24.4787C57.0062 24.8317 57.4493 25.016 58.017 25.0317C58.6008 25.0479 59.0656 24.8807 59.4115 24.5301C59.7573 24.1796 59.9397 23.6604 59.9588 22.9727L60.0587 19.3621L61.1503 19.3923Z" fill="black"/>
<path d="M65.1439 26.8541C64.6546 26.7332 64.236 26.5433 63.8879 26.2842C63.5418 26.0174 63.2926 25.7086 63.1403 25.3579C62.9899 24.9993 62.951 24.623 63.0237 24.2289L64.1187 24.4995C64.0711 24.8256 64.1544 25.1222 64.3686 25.3894C64.5905 25.6585 64.919 25.8468 65.3539 25.9542C65.7577 26.054 66.0982 26.0433 66.3754 25.9223C66.6525 25.8012 66.8246 25.6048 66.8918 25.3329C66.9609 25.0533 66.8874 24.8168 66.6715 24.6234C66.4575 24.4222 66.1067 24.1913 65.6189 23.9307C65.1759 23.6894 64.8183 23.4692 64.5461 23.2701C64.2836 23.0652 64.0743 22.8116 63.9182 22.5093C63.7718 22.2012 63.7495 21.8413 63.8512 21.4297C63.9318 21.1035 64.1027 20.8285 64.3641 20.6046C64.6254 20.3808 64.9539 20.2353 65.3495 20.1683C65.747 20.0934 66.1749 20.1126 66.6332 20.2258C67.3399 20.4004 67.8666 20.7201 68.2133 21.1848C68.5599 21.6495 68.672 22.1964 68.5496 22.8254L67.4895 22.5634C67.5487 22.2237 67.479 21.9222 67.2803 21.6589C67.0895 21.3975 66.7882 21.2159 66.3766 21.1142C65.996 21.0202 65.673 21.0269 65.4075 21.1344C65.1419 21.2418 64.9766 21.4276 64.9113 21.6916C64.8595 21.9013 64.8824 22.0924 64.9799 22.2648C65.087 22.4314 65.231 22.5823 65.4119 22.7176C65.6024 22.8471 65.8677 23.0074 66.2077 23.1986C66.6353 23.436 66.9774 23.6524 67.234 23.8477C67.4926 24.0352 67.6931 24.2742 67.8355 24.5649C67.9858 24.8574 68.0168 25.1988 67.9286 25.5891C67.8423 25.9386 67.6675 26.2291 67.4042 26.4608C67.141 26.6924 66.8106 26.8456 66.413 26.9204C66.0252 26.9894 65.6021 26.9673 65.1439 26.8541Z" fill="black"/>
<path d="M78.1534 22.2491L73.9565 30.0747L72.9941 29.5586L77.1911 21.733L78.1534 22.2491Z" fill="black"/>
<path d="M82.7398 31.8437C82.6125 32.0082 82.4683 32.1748 82.3073 32.3436L78.151 29.1263C77.786 29.6632 77.649 30.1996 77.7401 30.7354C77.8424 31.2698 78.1212 31.7133 78.5767 32.0659C78.95 32.3548 79.326 32.5094 79.705 32.5296C80.0951 32.5483 80.4535 32.4514 80.7799 32.2387L81.7099 32.9586C81.1838 33.3506 80.5896 33.5432 79.9273 33.5363C79.2698 33.523 78.6311 33.2765 78.0111 32.7966C77.5177 32.4146 77.1605 31.9611 76.9397 31.4361C76.7252 30.916 76.664 30.3678 76.7559 29.7915C76.8528 29.2089 77.1094 28.6488 77.5256 28.1111C77.9419 27.5733 78.4142 27.1853 78.9427 26.9469C79.4712 26.7085 80.0117 26.6311 80.5641 26.7148C81.1277 26.797 81.6625 27.0339 82.1686 27.4257C82.662 27.8077 83.0153 28.2531 83.2284 28.762C83.4415 29.2709 83.5023 29.7935 83.4109 30.3298C83.3308 30.8646 83.107 31.3692 82.7398 31.8437ZM81.9874 30.9729C82.242 30.644 82.3872 30.3062 82.4228 29.9595C82.4634 29.6064 82.4037 29.2719 82.2437 28.9558C82.0949 28.6383 81.8687 28.362 81.5651 28.127C81.1286 27.7891 80.6476 27.6394 80.1221 27.6778C79.603 27.7211 79.1303 27.9723 78.7041 28.4314L81.9874 30.9729Z" fill="black"/>
<path d="M83.2973 37.7052C82.9722 37.3201 82.7449 36.9204 82.6153 36.5064C82.4918 36.0872 82.4715 35.6909 82.5542 35.3176C82.643 34.939 82.8325 34.6116 83.1227 34.3353L83.8502 35.1973C83.6202 35.4333 83.5134 35.7223 83.5298 36.0644C83.5515 36.4125 83.7068 36.7578 83.9957 37.1001C84.264 37.418 84.5458 37.6094 84.8412 37.6741C85.1366 37.7389 85.3913 37.681 85.6053 37.5004C85.8254 37.3146 85.9049 37.0801 85.8437 36.7967C85.7887 36.5082 85.6403 36.1153 85.3985 35.6179C85.1816 35.1624 85.0214 34.7742 84.918 34.4532C84.8259 34.1332 84.8054 33.805 84.8566 33.4687C84.9191 33.1334 85.1123 32.829 85.4363 32.5555C85.6931 32.3388 85.993 32.2166 86.336 32.1889C86.6789 32.1611 87.0302 32.2363 87.3898 32.4143C87.7556 32.5872 88.0906 32.854 88.3951 33.2147C88.8646 33.7711 89.1032 34.3391 89.1109 34.9188C89.1186 35.4986 88.8882 36.007 88.4197 36.4442L87.7154 35.6097C87.9629 35.3695 88.0835 35.0845 88.0774 34.7547C88.0764 34.431 87.9391 34.1072 87.6657 33.7831C87.4129 33.4836 87.1475 33.2993 86.8694 33.2303C86.5914 33.1614 86.3485 33.2146 86.1406 33.3901C85.9755 33.5294 85.8818 33.6974 85.8595 33.8942C85.8484 34.092 85.8763 34.2987 85.9432 34.5144C86.0214 34.7311 86.142 35.0167 86.305 35.3711C86.5116 35.8144 86.6614 36.1904 86.7545 36.4991C86.8537 36.8027 86.8756 37.114 86.8203 37.4329C86.77 37.7579 86.5947 38.0525 86.2941 38.3166C86.019 38.5487 85.7069 38.6813 85.3578 38.7142C85.0087 38.7471 84.6513 38.6771 84.2856 38.5042C83.9311 38.3323 83.6017 38.0659 83.2973 37.7052Z" fill="black"/>
<path d="M93.4036 43.0477C93.8327 43.1102 94.2405 43.2929 94.6272 43.5959C95.0242 43.9034 95.3272 44.3212 95.5362 44.8493C95.7511 45.3923 95.8153 45.9348 95.7286 46.4767C95.6449 47.0261 95.4151 47.5214 95.0391 47.9627C94.6706 48.4011 94.1739 48.744 93.549 48.9913C92.9316 49.2356 92.3311 49.327 91.7475 49.2655C91.1639 49.2039 90.6499 49.003 90.2055 48.6626C89.764 48.3298 89.4358 47.8918 89.2209 47.3488C89.0148 46.8281 88.9475 46.3213 89.0192 45.8283C89.1012 45.3399 89.2758 44.9223 89.5429 44.5757L85.5149 46.1698L85.1131 45.1545L94.1287 41.5863L94.5305 42.6017L93.4036 43.0477ZM93.1383 47.9536C93.5995 47.7711 93.9644 47.5191 94.233 47.1977C94.5016 46.8763 94.6618 46.5204 94.7137 46.1298C94.7686 45.7468 94.721 45.3655 94.5708 44.9862C94.4236 44.6143 94.1938 44.3052 93.8812 44.0589C93.579 43.8171 93.2149 43.6687 92.7887 43.6137C92.3729 43.5632 91.9382 43.6277 91.4844 43.8073C91.0232 43.9898 90.6546 44.2432 90.3786 44.5676C90.113 44.8964 89.949 45.2538 89.8867 45.6398C89.8347 46.0303 89.8824 46.4116 90.0296 46.7835C90.1797 47.1629 90.4059 47.4734 90.7081 47.7152C91.0206 47.9615 91.3848 48.1099 91.8006 48.1604C92.2238 48.208 92.6697 48.1391 93.1383 47.9536Z" fill="black"/>
<path d="M96.5752 52.346C96.9793 52.4681 97.315 52.6839 97.5822 52.9934C97.8508 53.3107 98.0306 53.7213 98.1216 54.2252L97.0115 54.4256L96.9604 54.1421C96.7429 52.9376 95.9808 52.4533 94.6739 52.6892L91.1548 53.3244L90.9608 52.2498L97.4322 51.0816L97.6262 52.1563L96.5752 52.346Z" fill="black"/>
<path d="M91.7395 60.0645C91.7472 59.4485 91.8942 58.8903 92.1805 58.3899C92.4666 57.8974 92.8675 57.5104 93.3831 57.2288C93.9065 56.9553 94.5082 56.8229 95.1882 56.8314C95.8601 56.8398 96.4503 56.9912 96.9586 57.2855C97.4749 57.588 97.8659 57.9929 98.1315 58.5003C98.4052 59.0078 98.5382 59.5735 98.5303 60.1974C98.5225 60.8214 98.3755 61.3836 98.0892 61.884C97.8109 62.3846 97.414 62.7757 96.8985 63.0572C96.3828 63.3468 95.785 63.4873 95.105 63.4788C94.4251 63.4703 93.827 63.3108 93.3109 63.0004C92.8026 62.698 92.4117 62.2891 92.1381 61.7736C91.8646 61.2581 91.7317 60.6884 91.7395 60.0645ZM92.6994 60.0765C92.6945 60.4685 92.7819 60.8376 92.9616 61.1839C93.1413 61.5301 93.4138 61.8096 93.7792 62.0222C94.1444 62.2427 94.591 62.3563 95.119 62.3629C95.647 62.3695 96.0962 62.2711 96.4668 62.0678C96.8374 61.8644 97.1127 61.5958 97.2929 61.262C97.4811 60.9284 97.5777 60.5655 97.5826 60.1736C97.5876 59.7736 97.5002 59.4045 97.3204 59.0662C97.1485 58.736 96.8798 58.4686 96.5144 58.2641C96.1489 58.0595 95.7022 57.9539 95.1742 57.9473C94.6383 57.9406 94.1851 58.0309 93.8147 58.2183C93.4443 58.4137 93.165 58.6742 92.9769 58.9999C92.7968 59.3257 92.7043 59.6845 92.6994 60.0765Z" fill="black"/>
<path d="M98.9332 66.9742C98.969 66.7693 99.0702 66.6083 99.2368 66.4912C99.4021 66.382 99.5872 66.3453 99.7921 66.3811C99.997 66.4169 100.159 66.5141 100.277 66.6729C100.394 66.8395 100.435 67.0253 100.399 67.2302C100.363 67.4351 100.263 67.5921 100.098 67.7013C99.9309 67.8184 99.7451 67.859 99.5402 67.8233C99.3353 67.7875 99.1743 67.6863 99.0573 67.5196C98.9388 67.3609 98.8975 67.1791 98.9332 66.9742ZM89.9036 65.9455C89.3283 65.845 88.9321 65.6256 88.7151 65.2872C88.4981 64.9489 88.4384 64.4999 88.5361 63.9404L88.6455 63.3139L89.5558 63.4728L89.4773 63.922C89.425 64.2215 89.4477 64.4406 89.5452 64.5795C89.6414 64.7262 89.8314 64.8244 90.1151 64.8739L97.9761 66.2467L97.7883 67.3224L89.9036 65.9455Z" fill="black"/>
<path d="M92.3594 75.2331C92.1632 75.164 91.9597 75.0796 91.7488 74.9799L93.4951 70.0225C92.8706 69.8449 92.3184 69.8836 91.8384 70.1386C91.3633 70.4039 91.03 70.8081 90.8387 71.3514C90.6819 71.7966 90.6535 72.2022 90.7536 72.5682C90.8585 72.9445 91.0633 73.2541 91.3678 73.4971L90.9771 74.6063C90.4395 74.2303 90.0698 73.7269 89.8679 73.096C89.6736 72.4677 89.7067 71.7839 89.9672 71.0444C90.1745 70.4558 90.4926 69.9742 90.9215 69.5994C91.3477 69.2321 91.8488 69.0015 92.4247 68.9075C93.0082 68.8162 93.6207 68.8835 94.262 69.1094C94.9034 69.3353 95.4204 69.6616 95.8129 70.0883C96.2054 70.5149 96.4489 71.0036 96.5433 71.5542C96.6426 72.1151 96.586 72.6973 96.3733 73.301C96.166 73.8895 95.8543 74.365 95.4383 74.7274C95.0223 75.0897 94.5454 75.3119 94.0076 75.3939C93.4747 75.4861 92.9253 75.4325 92.3594 75.2331ZM92.9492 74.245C93.3416 74.3832 93.7079 74.4147 94.0482 74.3395C94.3961 74.2669 94.6949 74.105 94.9445 73.8537C95.1991 73.6126 95.3902 73.3109 95.5178 72.9487C95.7012 72.4281 95.692 71.9244 95.4902 71.4377C95.2858 70.9586 94.8986 70.589 94.3287 70.3288L92.9492 74.245Z" fill="black"/>
<path d="M92.4169 79.7583L89.0659 77.8103C88.7893 77.6495 88.558 77.5937 88.372 77.6429C88.193 77.6962 88.0191 77.868 87.8502 78.1585L87.4462 78.8536L86.6473 78.3892L87.1419 77.5385C87.4474 77.0129 87.7976 76.689 88.1925 76.5669C88.5873 76.4448 89.0614 76.5446 89.6147 76.8662L92.9657 78.8142L93.3938 78.0776L94.1719 78.5299L93.7437 79.2665L95.1754 80.0987L94.6266 81.0428L93.1949 80.2106L92.3325 81.6941L91.5545 81.2418L92.4169 79.7583Z" fill="black"/>
<path d="M84.0331 81.8378C84.3592 81.4535 84.7157 81.1632 85.1026 80.9669C85.4956 80.7757 85.883 80.69 86.2649 80.7098C86.6529 80.7347 87.0072 80.8675 87.3277 81.1079L86.598 81.9681C86.3271 81.7803 86.0244 81.7228 85.6899 81.7956C85.3501 81.8746 85.0353 82.0848 84.7455 82.4265C84.4764 82.7437 84.3343 83.0533 84.3193 83.3553C84.3044 83.6574 84.4036 83.899 84.6172 84.0801C84.8368 84.2665 85.0812 84.306 85.3505 84.1988C85.626 84.0967 85.9889 83.8854 86.4394 83.5646C86.8527 83.2753 87.2091 83.0531 87.5086 82.898C87.8089 82.7542 88.1292 82.6797 88.4693 82.6745C88.8104 82.6806 89.1425 82.8208 89.4659 83.0951C89.7221 83.3125 89.8922 83.588 89.9763 83.9217C90.0605 84.2553 90.0445 84.6142 89.9284 84.9983C89.8184 85.3876 89.6108 85.7622 89.3054 86.1221C88.8344 86.6773 88.3137 87.0066 87.7432 87.1101C87.1728 87.2137 86.6332 87.0706 86.1245 86.6809L86.831 85.8483C87.1088 86.0525 87.4098 86.1243 87.7341 86.0637C88.0531 86.0091 88.3498 85.8202 88.6241 85.4969C88.8777 85.198 89.0155 84.9057 89.0375 84.6201C89.0595 84.3346 88.9668 84.1038 88.7594 83.9278C88.5947 83.7881 88.4134 83.7235 88.2156 83.734C88.0188 83.7558 87.8195 83.8176 87.6178 83.9192C87.4171 84.0322 87.1554 84.1984 86.8329 84.4178C86.4299 84.6949 86.0839 84.9049 85.7948 85.0478C85.5118 85.1959 85.2084 85.269 84.8848 85.2671C84.5559 85.2714 84.2364 85.1472 83.9262 84.8945C83.6517 84.6616 83.4693 84.3757 83.3791 84.0369C83.2889 83.6981 83.2988 83.334 83.4088 82.9447C83.5197 82.5667 83.7278 82.1977 84.0331 81.8378Z" fill="black"/>
<path d="M79.8614 90.5291C80.031 90.4087 80.2162 90.3657 80.417 90.3998C80.6178 90.434 80.7783 90.5359 80.8986 90.7055C81.019 90.8752 81.0621 91.0604 81.0279 91.2612C80.9938 91.4619 80.8918 91.6225 80.7222 91.7428C80.5591 91.8585 80.3804 91.897 80.1861 91.8582C79.9854 91.824 79.8248 91.7221 79.7045 91.5525C79.5842 91.3828 79.5411 91.1976 79.5752 90.9968C79.6028 90.8007 79.6982 90.6448 79.8614 90.5291Z" fill="black"/>
</svg>
