<svg width="157" height="157" viewBox="0 0 157 157" fill="none" xmlns="http://www.w3.org/2000/svg">
<circle cx="78.5" cy="78.5" r="78.5" fill="#333333"/>
<circle cx="78.5" cy="78.5" r="70.5" fill="#333333"/>
<circle cx="78.5" cy="78.5" r="70.25" stroke="#F2F2F2" stroke-opacity="0.51" stroke-width="0.5"/>
<path d="M28.704 73.348C29.92 73.348 30.9707 73.5773 31.856 74.036C32.752 74.484 33.4347 75.1293 33.904 75.972C34.384 76.8147 34.624 77.8067 34.624 78.948C34.624 80.0893 34.384 81.0813 33.904 81.924C33.4347 82.756 32.752 83.396 31.856 83.844C30.9707 84.2813 29.92 84.5 28.704 84.5H25.232V73.348H28.704ZM28.704 83.3C30.144 83.3 31.2427 82.9213 32 82.164C32.7573 81.396 33.136 80.324 33.136 78.948C33.136 77.5613 32.752 76.4787 31.984 75.7C31.2267 74.9213 30.1333 74.532 28.704 74.532H26.688V83.3H28.704ZM37.2965 74.308C37.0192 74.308 36.7845 74.212 36.5925 74.02C36.4005 73.828 36.3045 73.5933 36.3045 73.316C36.3045 73.0387 36.4005 72.804 36.5925 72.612C36.7845 72.42 37.0192 72.324 37.2965 72.324C37.5632 72.324 37.7872 72.42 37.9685 72.612C38.1605 72.804 38.2565 73.0387 38.2565 73.316C38.2565 73.5933 38.1605 73.828 37.9685 74.02C37.7872 74.212 37.5632 74.308 37.2965 74.308ZM38.0005 75.732V84.5H36.5445V75.732H38.0005ZM43.586 84.644C42.914 84.644 42.3113 84.532 41.778 84.308C41.2447 84.0733 40.8233 83.7533 40.514 83.348C40.2047 82.932 40.034 82.4573 40.002 81.924H41.506C41.5487 82.3613 41.7513 82.7187 42.114 82.996C42.4873 83.2733 42.9727 83.412 43.57 83.412C44.1247 83.412 44.562 83.2893 44.882 83.044C45.202 82.7987 45.362 82.4893 45.362 82.116C45.362 81.732 45.1913 81.4493 44.85 81.268C44.5087 81.076 43.9807 80.8893 43.266 80.708C42.6153 80.5373 42.082 80.3667 41.666 80.196C41.2607 80.0147 40.9087 79.7533 40.61 79.412C40.322 79.06 40.178 78.6013 40.178 78.036C40.178 77.588 40.3113 77.1773 40.578 76.804C40.8447 76.4307 41.2233 76.1373 41.714 75.924C42.2047 75.7 42.7647 75.588 43.394 75.588C44.3647 75.588 45.1487 75.8333 45.746 76.324C46.3433 76.8147 46.6633 77.4867 46.706 78.34H45.25C45.218 77.8813 45.0313 77.5133 44.69 77.236C44.3593 76.9587 43.9113 76.82 43.346 76.82C42.8233 76.82 42.4073 76.932 42.098 77.156C41.7887 77.38 41.634 77.6733 41.634 78.036C41.634 78.324 41.7247 78.564 41.906 78.756C42.098 78.9373 42.3327 79.0867 42.61 79.204C42.898 79.3107 43.2927 79.4333 43.794 79.572C44.4233 79.7427 44.9353 79.9133 45.33 80.084C45.7247 80.244 46.0607 80.4893 46.338 80.82C46.626 81.1507 46.7753 81.5827 46.786 82.116C46.786 82.596 46.6527 83.028 46.386 83.412C46.1193 83.796 45.7407 84.1 45.25 84.324C44.77 84.5373 44.2153 84.644 43.586 84.644ZM48.2974 80.1C48.2974 79.1933 48.4787 78.404 48.8414 77.732C49.204 77.0493 49.7054 76.5213 50.3454 76.148C50.996 75.7747 51.7374 75.588 52.5694 75.588C53.6467 75.588 54.532 75.8493 55.2254 76.372C55.9294 76.8947 56.3934 77.62 56.6174 78.548H55.0494C54.9 78.0147 54.6067 77.5933 54.1694 77.284C53.7427 76.9747 53.2094 76.82 52.5694 76.82C51.7374 76.82 51.0654 77.108 50.5534 77.684C50.0414 78.2493 49.7854 79.0547 49.7854 80.1C49.7854 81.156 50.0414 81.972 50.5534 82.548C51.0654 83.124 51.7374 83.412 52.5694 83.412C53.2094 83.412 53.7427 83.2627 54.1694 82.964C54.596 82.6653 54.8894 82.2387 55.0494 81.684H56.6174C56.3827 82.58 55.9134 83.3 55.2094 83.844C54.5054 84.3773 53.6254 84.644 52.5694 84.644C51.7374 84.644 50.996 84.4573 50.3454 84.084C49.7054 83.7107 49.204 83.1827 48.8414 82.5C48.4787 81.8173 48.2974 81.0173 48.2974 80.1ZM66.3361 75.732V84.5H64.8801V83.204C64.6028 83.652 64.2135 84.004 63.7121 84.26C63.2215 84.5053 62.6775 84.628 62.0801 84.628C61.3975 84.628 60.7841 84.4893 60.2401 84.212C59.6961 83.924 59.2641 83.4973 58.9441 82.932C58.6348 82.3667 58.4801 81.6787 58.4801 80.868V75.732H59.9201V80.676C59.9201 81.54 60.1388 82.2067 60.5761 82.676C61.0135 83.1347 61.6108 83.364 62.3681 83.364C63.1468 83.364 63.7601 83.124 64.2081 82.644C64.6561 82.164 64.8801 81.4653 64.8801 80.548V75.732H66.3361ZM70.5705 76.932V82.1C70.5705 82.5267 70.6612 82.8307 70.8425 83.012C71.0238 83.1827 71.3385 83.268 71.7865 83.268H72.8585V84.5H71.5465C70.7358 84.5 70.1278 84.3133 69.7225 83.94C69.3172 83.5667 69.1145 82.9533 69.1145 82.1V76.932H67.9785V75.732H69.1145V73.524H70.5705V75.732H72.8585V76.932H70.5705ZM78.4466 84.644C77.6253 84.644 76.8786 84.4573 76.2066 84.084C75.5453 83.7107 75.0226 83.1827 74.6386 82.5C74.2653 81.8067 74.0786 81.0067 74.0786 80.1C74.0786 79.204 74.2706 78.4147 74.6546 77.732C75.0493 77.0387 75.5826 76.5107 76.2546 76.148C76.9266 75.7747 77.6786 75.588 78.5106 75.588C79.3426 75.588 80.0946 75.7747 80.7666 76.148C81.4386 76.5107 81.9666 77.0333 82.3506 77.716C82.7453 78.3987 82.9426 79.1933 82.9426 80.1C82.9426 81.0067 82.74 81.8067 82.3346 82.5C81.94 83.1827 81.4013 83.7107 80.7186 84.084C80.036 84.4573 79.2786 84.644 78.4466 84.644ZM78.4466 83.364C78.9693 83.364 79.46 83.2413 79.9186 82.996C80.3773 82.7507 80.7453 82.3827 81.0226 81.892C81.3106 81.4013 81.4546 80.804 81.4546 80.1C81.4546 79.396 81.316 78.7987 81.0386 78.308C80.7613 77.8173 80.3986 77.4547 79.9506 77.22C79.5026 76.9747 79.0173 76.852 78.4946 76.852C77.9613 76.852 77.4706 76.9747 77.0226 77.22C76.5853 77.4547 76.2333 77.8173 75.9666 78.308C75.7 78.7987 75.5666 79.396 75.5666 80.1C75.5666 80.8147 75.6946 81.4173 75.9506 81.908C76.2173 82.3987 76.5693 82.7667 77.0066 83.012C77.444 83.2467 77.924 83.364 78.4466 83.364ZM89.129 75.572C90.1957 75.572 91.0597 75.8973 91.721 76.548C92.3823 77.188 92.713 78.116 92.713 79.332V84.5H91.273V79.54C91.273 78.6653 91.0543 77.9987 90.617 77.54C90.1797 77.0707 89.5823 76.836 88.825 76.836C88.057 76.836 87.4437 77.076 86.985 77.556C86.537 78.036 86.313 78.7347 86.313 79.652V84.5H84.857V75.732H86.313V76.98C86.601 76.532 86.9903 76.1853 87.481 75.94C87.9823 75.6947 88.5317 75.572 89.129 75.572ZM98.1954 84.644C97.5234 84.644 96.9207 84.532 96.3874 84.308C95.854 84.0733 95.4327 83.7533 95.1234 83.348C94.814 82.932 94.6434 82.4573 94.6114 81.924H96.1154C96.158 82.3613 96.3607 82.7187 96.7234 82.996C97.0967 83.2733 97.582 83.412 98.1794 83.412C98.734 83.412 99.1714 83.2893 99.4914 83.044C99.8114 82.7987 99.9714 82.4893 99.9714 82.116C99.9714 81.732 99.8007 81.4493 99.4594 81.268C99.118 81.076 98.59 80.8893 97.8754 80.708C97.2247 80.5373 96.6914 80.3667 96.2754 80.196C95.87 80.0147 95.518 79.7533 95.2194 79.412C94.9314 79.06 94.7874 78.6013 94.7874 78.036C94.7874 77.588 94.9207 77.1773 95.1874 76.804C95.454 76.4307 95.8327 76.1373 96.3234 75.924C96.814 75.7 97.374 75.588 98.0034 75.588C98.974 75.588 99.758 75.8333 100.355 76.324C100.953 76.8147 101.273 77.4867 101.315 78.34H99.8594C99.8274 77.8813 99.6407 77.5133 99.2994 77.236C98.9687 76.9587 98.5207 76.82 97.9554 76.82C97.4327 76.82 97.0167 76.932 96.7074 77.156C96.398 77.38 96.2434 77.6733 96.2434 78.036C96.2434 78.324 96.334 78.564 96.5154 78.756C96.7074 78.9373 96.942 79.0867 97.2194 79.204C97.5074 79.3107 97.902 79.4333 98.4034 79.572C99.0327 79.7427 99.5447 79.9133 99.9394 80.084C100.334 80.244 100.67 80.4893 100.947 80.82C101.235 81.1507 101.385 81.5827 101.395 82.116C101.395 82.596 101.262 83.028 100.995 83.412C100.729 83.796 100.35 84.1 99.8594 84.324C99.3794 84.5373 98.8247 84.644 98.1954 84.644Z" fill="#F2F2F2"/>
<path d="M114.705 83.885C114.316 84.2744 114.316 84.9056 114.705 85.295C115.094 85.6844 115.726 85.6844 116.115 85.295L124.293 77.1171C124.923 76.4871 126 76.9333 126 77.8242L126 81C126 81.5523 126.448 82 127 82C127.552 82 128 81.5523 128 81L128 73C128 72.4477 127.552 72 127 72L119 72C118.448 72 118 72.4477 118 73C118 73.5523 118.448 74 119 74L122.176 74C123.067 74 123.513 75.0771 122.883 75.7071L114.705 83.885Z" fill="#F2C94C"/>
</svg>
