<svg width="91" height="91" viewBox="0 0 91 91" fill="none" xmlns="http://www.w3.org/2000/svg">
<mask id="path-1-inside-1_131_10116" fill="white">
<path d="M85 45C85 67.0914 67.0914 85 45 85C22.9086 85 5 67.0914 5 45C5 22.9086 22.9086 5 45 5C67.0914 5 85 22.9086 85 45Z"/>
</mask>
<path d="M84 45C84 66.5391 66.5391 84 45 84V86C67.6437 86 86 67.6437 86 45H84ZM45 84C23.4609 84 6 66.5391 6 45H4C4 67.6437 22.3563 86 45 86V84ZM6 45C6 23.4609 23.4609 6 45 6V4C22.3563 4 4 22.3563 4 45H6ZM45 6C66.5391 6 84 23.4609 84 45H86C86 22.3563 67.6437 4 45 4V6Z" fill="black" mask="url(#path-1-inside-1_131_10116)"/>
<circle cx="45" cy="45" r="19.5" stroke="black"/>
<path d="M38.705 49.885C38.3156 50.2744 38.3156 50.9056 38.705 51.295V51.295C39.0944 51.6844 39.7256 51.6844 40.115 51.295L48.2929 43.1171C48.9229 42.4871 50 42.9333 50 43.8242L50 47C50 47.5523 50.4477 48 51 48V48C51.5523 48 52 47.5523 52 47L52 39C52 38.4477 51.5523 38 51 38L43 38C42.4477 38 42 38.4477 42 39V39C42 39.5523 42.4477 40 43 40L46.1758 40C47.0667 40 47.5129 41.0771 46.8829 41.7071L38.705 49.885Z" fill="#8873F0"/>
<path d="M48.5794 71.5817L47.8181 79.2042L46.6271 79.4891L47.714 70.4572L48.5631 70.2541L48.5794 71.5817ZM52.548 78.0729L48.4427 71.6144L47.8394 70.4272L48.6885 70.2241L53.739 77.788L52.548 78.0729Z" fill="black"/>
<path d="M43.764 73.3631L43.7555 73.4976C43.7266 73.9537 43.6335 74.3725 43.4762 74.7539C43.3187 75.1393 43.1061 75.4683 42.8383 75.7409C42.5702 76.0175 42.2538 76.2245 41.8889 76.3618C41.5237 76.503 41.1209 76.5597 40.6804 76.5317C40.236 76.5036 39.8416 76.3964 39.4972 76.2101C39.1487 76.0276 38.8589 75.7822 38.628 75.474C38.3929 75.1694 38.2215 74.8161 38.114 74.4139C38.0061 74.0157 37.9667 73.5885 37.9956 73.1324L38.0041 72.9979C38.0331 72.5418 38.1261 72.123 38.2834 71.7415C38.4407 71.3601 38.6553 71.0312 38.9272 70.7549C39.195 70.4823 39.5115 70.2753 39.8766 70.1341C40.2376 69.9965 40.6403 69.9418 41.0847 69.97C41.5292 69.9981 41.9237 70.1034 42.2683 70.2857C42.6127 70.472 42.9024 70.7174 43.1375 71.0219C43.3685 71.3301 43.5379 71.6833 43.6457 72.0816C43.7535 72.4798 43.793 72.907 43.764 73.3631ZM42.6737 73.429L42.6822 73.2945C42.7023 72.9787 42.6841 72.6782 42.6279 72.3928C42.5713 72.1113 42.4758 71.8587 42.3413 71.6349C42.2028 71.4108 42.0245 71.2292 41.8063 71.0901C41.5879 70.955 41.3285 70.8778 41.0284 70.8588C40.7321 70.84 40.469 70.884 40.2391 70.9908C40.0051 71.1012 39.8072 71.2589 39.6455 71.4639C39.4838 71.6689 39.3571 71.9075 39.2655 72.1796C39.1697 72.4553 39.1118 72.7511 39.0918 73.0668L39.0833 73.2013C39.0635 73.5132 39.0838 73.81 39.1442 74.0917C39.2005 74.3771 39.2978 74.6319 39.4363 74.8559C39.5706 75.0836 39.7468 75.267 39.965 75.4061C40.1793 75.5449 40.4366 75.6239 40.7367 75.6429C41.033 75.6617 41.2982 75.6159 41.5322 75.5055C41.7623 75.3948 41.9603 75.2351 42.1262 75.0265C42.2879 74.8215 42.4147 74.581 42.5066 74.305C42.5982 74.0329 42.6539 73.7409 42.6737 73.429Z" fill="black"/>
<path d="M34.1184 74.5794L36.0878 68.5532L37.1237 68.8918L35.1543 74.918L34.1184 74.5794ZM34.7099 76.5419C34.6553 76.709 34.5591 76.8337 34.4212 76.916C34.2796 76.9971 34.1086 77.0049 33.9081 76.9394C33.7113 76.8751 33.5797 76.7684 33.5134 76.6193C33.4433 76.469 33.4356 76.3104 33.4902 76.1433C33.5424 75.9836 33.6411 75.8638 33.7864 75.7839C33.9268 75.7065 34.0953 75.6999 34.2921 75.7643C34.4926 75.8298 34.6267 75.9352 34.6942 76.0806C34.7569 76.2285 34.7621 76.3822 34.7099 76.5419Z" fill="black"/>
<path d="M30.7987 71.9134L33.1623 67.1208L34.1345 67.6003L31.3302 73.2862L30.3843 72.8197L30.7987 71.9134ZM28.5663 71.9623L29.0173 71.061C29.0893 71.1183 29.1612 71.1668 29.233 71.2066C29.2996 71.2482 29.3785 71.2914 29.4696 71.3363C29.6938 71.4469 29.909 71.5095 30.1152 71.5241C30.3214 71.5387 30.5152 71.5123 30.6965 71.4449C30.8778 71.3775 31.0467 71.2735 31.2032 71.1329C31.3544 70.9941 31.4915 70.8265 31.6145 70.6302L31.9655 70.6073C31.7961 70.9506 31.6039 71.2565 31.3888 71.525C31.1701 71.7917 30.9319 72.0053 30.6743 72.1657C30.4149 72.3295 30.1428 72.4219 29.8582 72.4426C29.5683 72.4652 29.2692 72.4004 28.9609 72.2484C28.8909 72.2138 28.8146 72.1653 28.7322 72.1029C28.648 72.044 28.5927 71.9971 28.5663 71.9623Z" fill="black"/>
<path d="M20.4904 64.4731L21.0986 63.9053L23.4378 66.4107L22.8297 66.9785L20.4904 64.4731ZM20.9116 67.1822L20.1718 66.3899L24.7843 62.0832C24.9414 61.9366 25.0372 61.8017 25.0718 61.6785C25.1065 61.5554 25.1006 61.4432 25.0544 61.3421C25.0081 61.2411 24.9436 61.1463 24.861 61.0577C24.7997 60.9921 24.73 60.9289 24.6519 60.8682C24.5683 60.8073 24.5049 60.7622 24.4617 60.7331L25.1044 60.125C25.183 60.1692 25.2789 60.2347 25.392 60.3215C25.5053 60.4027 25.6286 60.5147 25.7619 60.6575C25.9431 60.8516 26.0712 61.0661 26.1461 61.3008C26.2209 61.5355 26.2137 61.7854 26.1245 62.0504C26.0297 62.3153 25.8282 62.5916 25.5198 62.8795L20.9116 67.1822Z" fill="black"/>
<path d="M21.9908 60.7214L21.8778 60.7948C21.4944 61.0436 21.1027 61.2186 20.7027 61.3198C20.2995 61.4231 19.9086 61.4486 19.53 61.3963C19.1482 61.346 18.7933 61.2154 18.4655 61.0044C18.1343 60.7955 17.8486 60.506 17.6084 60.1357C17.366 59.7621 17.2168 59.3816 17.1609 58.9941C17.0997 58.6055 17.1239 58.2265 17.2335 57.8574C17.3378 57.487 17.5193 57.1388 17.7779 56.8126C18.0333 56.4885 18.3527 56.2021 18.7361 55.9533L18.8491 55.88C19.2325 55.6312 19.6242 55.4562 20.0242 55.3549C20.4241 55.2537 20.8161 55.2299 21.2001 55.2834C21.5787 55.3357 21.9335 55.4664 22.2646 55.6752C22.5903 55.883 22.8744 56.1736 23.1168 56.5472C23.3592 56.9207 23.51 57.3002 23.5692 57.6856C23.625 58.073 23.6008 58.452 23.4966 58.8223C23.3869 59.1915 23.2044 59.5381 22.949 59.8622C22.6936 60.1862 22.3742 60.4726 21.9908 60.7214ZM21.2877 59.8855L21.4008 59.8121C21.6662 59.6399 21.8967 59.4461 22.0922 59.2307C22.2844 59.0175 22.4303 58.7901 22.5297 58.5487C22.627 58.3039 22.6664 58.0525 22.6479 57.7944C22.6262 57.5384 22.5334 57.2843 22.3697 57.032C22.2081 56.7829 22.0159 56.598 21.7931 56.4771C21.5649 56.3551 21.3203 56.2903 21.0593 56.2828C20.7983 56.2752 20.5312 56.3158 20.2582 56.4045C19.9797 56.4921 19.7078 56.622 19.4424 56.7942L19.3293 56.8675C19.0672 57.0377 18.8411 57.231 18.6509 57.4475C18.4554 57.6628 18.309 57.8929 18.2117 58.1376C18.109 58.3812 18.0669 58.6321 18.0854 58.8902C18.1017 59.145 18.1917 59.3986 18.3555 59.6509C18.5171 59.8999 18.712 60.0854 18.9402 60.2074C19.1662 60.3262 19.4125 60.3899 19.6789 60.3986C19.9399 60.4062 20.2086 60.3645 20.4849 60.2737C20.758 60.185 21.0256 60.0556 21.2877 59.8855Z" fill="black"/>
<path d="M19.0919 49.536L14.4465 51.0144L14.116 49.9758L20.1573 48.0533L20.4718 49.0415L19.0919 49.536ZM17.7567 49.7457L17.6087 49.3193C18.0107 49.1914 18.3966 49.1157 18.7663 49.0924C19.1311 49.0665 19.4678 49.1069 19.7764 49.2136C20.085 49.3204 20.3581 49.502 20.5955 49.7585C20.8291 50.0162 21.0147 50.3609 21.1521 50.7927C21.2457 51.0868 21.2887 51.3702 21.2813 51.6432C21.2727 51.9124 21.2069 52.1629 21.0839 52.3947C20.9609 52.6265 20.7715 52.8364 20.5157 53.0244C20.2587 53.2086 19.9292 53.3647 19.5272 53.4927L15.6299 54.7329L15.3012 53.7L19.2096 52.4562C19.4813 52.3697 19.6971 52.2683 19.8568 52.1518C20.0116 52.0329 20.1245 51.9047 20.1956 51.7673C20.2617 51.6274 20.2945 51.4858 20.294 51.3425C20.2923 51.1954 20.269 51.0512 20.224 50.9097C20.0842 50.4705 19.8897 50.1491 19.6404 49.9456C19.3875 49.7432 19.0999 49.6318 18.7777 49.6114C18.4507 49.5884 18.1103 49.6332 17.7567 49.7457Z" fill="black"/>
<path d="M18.7355 42.5501C18.5794 42.5561 18.4364 42.5969 18.3064 42.6723C18.1724 42.744 18.0548 42.8874 17.9537 43.1024C17.8486 43.3137 17.7632 43.6298 17.6975 44.0506C17.6371 44.4048 17.5617 44.7264 17.4713 45.0153C17.3808 45.3002 17.2672 45.5451 17.1305 45.7498C16.9937 45.9506 16.8298 46.1075 16.6387 46.2205C16.4477 46.3335 16.2214 46.3951 15.9598 46.4053C15.71 46.415 15.4718 46.3696 15.245 46.269C15.0181 46.1645 14.8148 46.0141 14.6352 45.8178C14.4554 45.6176 14.311 45.375 14.2022 45.09C14.0933 44.8049 14.032 44.4848 14.0181 44.1296C13.9983 43.6222 14.0712 43.1854 14.2368 42.8193C14.4023 42.4532 14.6316 42.1687 14.9247 41.9657C15.2139 41.7629 15.54 41.6544 15.903 41.6402L15.9453 42.7234C15.7696 42.7302 15.6019 42.7895 15.442 42.9013C15.2782 43.0094 15.1455 43.165 15.0439 43.3684C14.9422 43.5678 14.897 43.81 14.9081 44.0949C14.9198 44.3955 14.9761 44.6376 15.0771 44.8213C15.1741 45.0013 15.2945 45.1314 15.4383 45.2118C15.582 45.2883 15.732 45.3235 15.8881 45.3174C16.0052 45.3128 16.1098 45.2892 16.202 45.2465C16.2901 45.2001 16.3711 45.1227 16.4451 45.0142C16.5151 44.9059 16.5796 44.7549 16.6385 44.561C16.6974 44.3672 16.7542 44.1206 16.809 43.8214C16.9059 43.2977 17.0297 42.8648 17.1806 42.5227C17.3314 42.1807 17.5227 41.923 17.7544 41.7498C17.9861 41.5766 18.2717 41.4833 18.6113 41.4701C18.8885 41.4593 19.1445 41.5079 19.3793 41.6161C19.614 41.7203 19.8196 41.8784 19.9959 42.0904C20.1682 42.2987 20.3071 42.5513 20.4125 42.8482C20.5138 43.1414 20.5717 43.4733 20.5862 43.8441C20.608 44.4023 20.5269 44.8785 20.3429 45.2727C20.1589 45.6669 19.9127 45.9697 19.6043 46.1811C19.2959 46.3925 18.966 46.505 18.6147 46.5187L18.5723 45.4297C18.8683 45.4025 19.1011 45.3074 19.2706 45.1444C19.4363 44.9816 19.5518 44.7856 19.6171 44.5563C19.6786 44.3272 19.7049 44.1013 19.6963 43.8789C19.6847 43.5822 19.636 43.3359 19.5502 43.1398C19.4642 42.9399 19.3508 42.7899 19.2101 42.6899C19.0694 42.5898 18.9112 42.5432 18.7355 42.5501Z" fill="black"/>
<path d="M14.6316 31.2358L22.9839 34.5883L22.578 35.5997L14.2257 32.2472L14.6316 31.2358Z" fill="black"/>
<path d="M25.4907 30.5109C25.2673 30.8915 25.0005 31.1992 24.6906 31.434C24.3792 31.6634 24.0404 31.8201 23.6741 31.904C23.3097 31.9845 22.9313 31.9888 22.5386 31.9168C22.146 31.8449 21.7577 31.6962 21.3737 31.4707L21.1615 31.3461C20.7168 31.0851 20.3596 30.787 20.0897 30.4519C19.8165 30.1149 19.6249 29.7623 19.5149 29.3942C19.4048 29.0261 19.3715 28.6623 19.415 28.3028C19.4585 27.9433 19.5702 27.6103 19.7501 27.3037C19.9795 26.913 20.2447 26.6157 20.5455 26.4118C20.8484 26.2046 21.1745 26.0812 21.5238 26.0417C21.8698 26.0002 22.2319 26.0316 22.61 26.1358C22.9848 26.2381 23.3643 26.402 23.7483 26.6274L24.1677 26.8736L21.7708 30.9564L21.0078 30.5085L22.8559 27.3605L22.7851 27.319C22.5347 27.19 22.2692 27.1021 21.9887 27.0552C21.7102 27.005 21.4425 27.029 21.1855 27.1272C20.9285 27.2255 20.7061 27.4346 20.5182 27.7547C20.3936 27.9669 20.3244 28.189 20.3105 28.4209C20.2933 28.6508 20.3347 28.8812 20.4347 29.1121C20.5347 29.3429 20.6903 29.5679 20.9014 29.787C21.1125 30.006 21.3831 30.2125 21.7132 30.4063L21.9255 30.5309C22.1848 30.6831 22.4498 30.7912 22.7204 30.8549C22.9896 30.9133 23.2507 30.9239 23.5036 30.8866C23.7584 30.846 23.9931 30.755 24.2074 30.6136C24.4238 30.4688 24.6071 30.2684 24.7574 30.0124C24.9512 29.6823 25.048 29.3631 25.0477 29.055C25.0475 28.7468 24.9849 28.4405 24.8601 28.1362L25.642 27.8343C25.7513 28.057 25.8335 28.3068 25.8884 28.5837C25.9433 28.8605 25.9431 29.1616 25.8879 29.4871C25.8347 29.8092 25.7023 30.1504 25.4907 30.5109Z" fill="black"/>
<path d="M29.5899 23.7761C29.4803 23.6646 29.3539 23.5862 29.2107 23.5408C29.0675 23.4899 28.8823 23.4994 28.6552 23.5693C28.4282 23.6337 28.1369 23.7831 27.7814 24.0177C27.4786 24.2112 27.19 24.3718 26.9155 24.4993C26.6437 24.6241 26.3862 24.7048 26.1428 24.7414C25.9022 24.7753 25.6758 24.7595 25.4637 24.6942C25.2515 24.6289 25.0537 24.5029 24.8702 24.3163C24.6949 24.138 24.5682 23.9312 24.4901 23.6957C24.4148 23.4576 24.3893 23.206 24.4136 22.941C24.4407 22.6733 24.5231 22.4033 24.6608 22.131C24.7984 21.8587 24.994 21.5979 25.2474 21.3487C25.6095 20.9927 25.9817 20.7527 26.3639 20.6289C26.7461 20.5051 27.1109 20.4833 27.4583 20.5635C27.8029 20.641 28.1026 20.8093 28.3573 21.0683L27.5844 21.8283C27.4611 21.703 27.3044 21.6188 27.1142 21.5758C26.924 21.5272 26.7195 21.5338 26.5008 21.5955C26.2848 21.6544 26.0752 21.7838 25.8719 21.9838C25.6574 22.1946 25.5162 22.3992 25.4482 22.5975C25.3803 22.7903 25.365 22.967 25.4023 23.1275C25.4424 23.2853 25.5172 23.4199 25.6268 23.5313C25.7089 23.6149 25.7968 23.6764 25.8904 23.7158C25.984 23.7498 26.0958 23.7576 26.2258 23.7394C26.353 23.7184 26.5082 23.6644 26.6912 23.5776C26.8743 23.4907 27.0949 23.3669 27.3532 23.2061C27.8058 22.9254 28.2094 22.7258 28.5639 22.6073C28.9185 22.4887 29.2378 22.4569 29.5218 22.5118C29.8059 22.5666 30.067 22.7152 30.3053 22.9576C30.4998 23.1553 30.636 23.3774 30.714 23.6239C30.7948 23.8677 30.8161 24.1261 30.7779 24.3993C30.7398 24.6669 30.6463 24.9396 30.4976 25.2173C30.3489 25.4895 30.1422 25.7557 29.8776 26.0159C29.4793 26.4075 29.0724 26.6679 28.657 26.797C28.2416 26.9261 27.8519 26.9476 27.4881 26.8617C27.1242 26.7758 26.819 26.6074 26.5725 26.3568L27.3496 25.5927C27.5689 25.7934 27.7959 25.9016 28.0305 25.9174C28.2624 25.9304 28.4852 25.884 28.6988 25.7781C28.9096 25.6693 29.0944 25.5369 29.2532 25.3808C29.4649 25.1727 29.6143 24.9709 29.7016 24.7755C29.7917 24.5774 29.8264 24.3926 29.8057 24.2212C29.7851 24.0498 29.7131 23.9014 29.5899 23.7761Z" fill="black"/>
<path d="M40.1945 19.1404C40.1426 18.993 40.0613 18.8684 39.9509 18.7665C39.8428 18.6597 39.6711 18.5897 39.4358 18.5567C39.2029 18.5187 38.8757 18.5305 38.4542 18.5921C38.098 18.639 37.7685 18.662 37.4658 18.661C37.1668 18.6587 36.8993 18.6226 36.6634 18.5525C36.4311 18.4811 36.2328 18.3709 36.0684 18.2217C35.904 18.0726 35.7783 17.8746 35.6912 17.6278C35.6081 17.392 35.5811 17.151 35.6102 16.9046C35.643 16.6569 35.7266 16.4183 35.8611 16.1887C35.9992 15.9577 36.1883 15.7482 36.4284 15.56C36.6686 15.3717 36.9563 15.2185 37.2915 15.1003C37.7705 14.9315 38.2093 14.8721 38.6079 14.922C39.0066 14.972 39.3462 15.107 39.6267 15.327C39.9059 15.5434 40.106 15.8229 40.2267 16.1655L39.2044 16.5259C39.146 16.3601 39.0398 16.2174 38.8857 16.0977C38.7341 15.9731 38.5462 15.8923 38.3219 15.8554C38.1013 15.8172 37.8566 15.8455 37.5877 15.9403C37.304 16.0403 37.0893 16.1657 36.9437 16.3165C36.8004 16.4622 36.7116 16.6157 36.6773 16.7769C36.6467 16.9368 36.6574 17.0904 36.7093 17.2378C36.7483 17.3483 36.8018 17.4413 36.8698 17.5167C36.9402 17.5872 37.0381 17.6417 37.1636 17.6803C37.2877 17.7152 37.4511 17.7322 37.6537 17.7312C37.8563 17.7302 38.1086 17.7116 38.4107 17.6755C38.9396 17.6133 39.3898 17.6037 39.7611 17.6468C40.1325 17.6898 40.4352 17.7964 40.6691 17.9666C40.9031 18.1367 41.0766 18.3821 41.1895 18.7026C41.2818 18.9642 41.3109 19.2231 41.277 19.4794C41.2468 19.7344 41.1565 19.9775 41.006 20.2087C40.858 20.4348 40.6577 20.6421 40.4052 20.8305C40.1551 21.014 39.855 21.1674 39.505 21.2908C38.9782 21.4765 38.4993 21.5397 38.0684 21.4804C37.6374 21.4211 37.2754 21.2754 36.9823 21.0432C36.6892 20.8111 36.4843 20.5292 36.3674 20.1976L37.3952 19.8353C37.5086 20.1101 37.6683 20.3044 37.8741 20.4182C38.0786 20.5283 38.3 20.5807 38.5384 20.5754C38.7754 20.5664 38.9989 20.5249 39.2089 20.4508C39.4889 20.3521 39.7099 20.2328 39.8718 20.0929C40.0374 19.9517 40.1472 19.7991 40.2012 19.6351C40.2552 19.471 40.253 19.3062 40.1945 19.1404Z" fill="black"/>
<path d="M46.3972 20.5569C45.957 20.5893 45.5523 20.5446 45.183 20.4229C44.8173 20.297 44.4959 20.1071 44.2187 19.8533C43.9455 19.5992 43.7269 19.2902 43.5631 18.9262C43.3993 18.5622 43.3011 18.1582 43.2684 17.7141L43.2504 17.4686C43.2126 16.9544 43.255 16.4911 43.3774 16.0786C43.4996 15.6623 43.6809 15.3043 43.9213 15.0047C44.1617 14.705 44.4422 14.4709 44.7627 14.3025C45.0833 14.134 45.4208 14.0367 45.7753 14.0107C46.2273 13.9775 46.6226 14.0268 46.9612 14.1586C47.3038 14.2901 47.5906 14.4884 47.8216 14.7534C48.0523 15.0146 48.2321 15.3304 48.3612 15.7008C48.49 16.0674 48.5706 16.4727 48.6033 16.9168L48.6389 17.4018L43.9172 17.7487L43.8524 16.8663L47.493 16.5988L47.487 16.517C47.4508 16.2377 47.3723 15.9693 47.2516 15.7118C47.1347 15.454 46.9629 15.2473 46.736 15.0917C46.5092 14.936 46.2107 14.8717 45.8406 14.8989C45.5952 14.917 45.3731 14.9861 45.1743 15.1065C44.9753 15.223 44.8092 15.3879 44.676 15.6014C44.5429 15.8148 44.4461 16.0706 44.3858 16.3688C44.3254 16.667 44.3093 17.007 44.3373 17.3888L44.3554 17.6342C44.3774 17.9342 44.439 18.2136 44.5403 18.4725C44.6452 18.7273 44.7848 18.9481 44.9591 19.135C45.1373 19.3217 45.3455 19.4631 45.5837 19.5592C45.8257 19.655 46.0948 19.692 46.3908 19.6703C46.7726 19.6422 47.0902 19.5406 47.3437 19.3653C47.5972 19.19 47.8137 18.9645 47.9932 18.6889L48.6859 19.1609C48.5647 19.3774 48.4058 19.5869 48.2091 19.7893C48.0125 19.9918 47.7646 20.1627 47.4654 20.3022C47.1701 20.4414 46.8141 20.5263 46.3972 20.5569Z" fill="black"/>
<path d="M52.4907 16.0415L51.479 21.2887L50.4146 21.0834L51.6149 14.8582L52.6505 15.0579L52.4907 16.0415ZM54.6306 15.4039L54.434 16.3924C54.3495 16.3562 54.2673 16.3284 54.1875 16.309C54.1123 16.2866 54.0248 16.2657 53.9251 16.2465C53.6796 16.1992 53.4555 16.1957 53.2528 16.2362C53.05 16.2767 52.8701 16.3534 52.7131 16.4663C52.5561 16.5793 52.4207 16.7242 52.307 16.9012C52.1979 17.0751 52.11 17.273 52.0434 17.4949L51.7109 17.6098C51.7834 17.2339 51.8879 16.888 52.0244 16.5722C52.1647 16.2572 52.3379 15.9882 52.5439 15.7654C52.7507 15.5387 52.9886 15.3777 53.2577 15.2824C53.5312 15.184 53.8368 15.1673 54.1743 15.2324C54.251 15.2472 54.3374 15.2738 54.4334 15.3122C54.5302 15.3467 54.5959 15.3773 54.6306 15.4039Z" fill="black"/>
<path d="M57.261 22.3805L60.9148 18.0908L61.938 18.5145L57.4063 23.4998L56.7351 23.2218L57.261 22.3805ZM57.9753 16.8734L57.5638 22.5376L57.3143 23.4617L56.643 23.1837L56.9467 16.4475L57.9753 16.8734Z" fill="black"/>
<path d="M64.7446 20.8953L61.0895 26.0754L60.199 25.4471L63.8542 20.267L64.7446 20.8953ZM64.7567 18.8457C64.858 18.702 64.9867 18.6112 65.1427 18.573C65.3019 18.5371 65.4676 18.58 65.64 18.7016C65.8091 18.821 65.9035 18.9617 65.923 19.1237C65.9458 19.2879 65.9065 19.4418 65.8051 19.5855C65.7083 19.7227 65.5787 19.8082 65.4163 19.8418C65.2594 19.8745 65.0963 19.8311 64.9272 19.7118C64.7548 19.5902 64.6578 19.45 64.636 19.2911C64.6196 19.1314 64.6598 18.9829 64.7567 18.8457Z" fill="black"/>
<path d="M65.0252 28.7125C65.2119 28.8902 65.4209 29.0163 65.652 29.0907C65.8832 29.1651 66.113 29.1843 66.3414 29.1483C66.5726 29.1094 66.7773 29.0104 66.9558 28.8513L67.7027 29.5622C67.4301 29.8204 67.0971 29.9861 66.7038 30.0594C66.316 30.1325 65.9176 30.112 65.5087 29.9977C65.1024 29.8807 64.7365 29.6673 64.4111 29.3576C64.0659 29.029 63.8225 28.6814 63.6808 28.3147C63.542 27.9506 63.4886 27.5817 63.5208 27.2079C63.5559 26.8368 63.6616 26.4736 63.8379 26.1183C64.0198 25.763 64.2575 25.4311 64.551 25.1226L64.7207 24.9444C65.0142 24.636 65.3327 24.3836 65.6759 24.1872C66.0248 23.9907 66.3836 23.8658 66.7525 23.8125C67.1243 23.7618 67.4954 23.7969 67.8659 23.9176C68.2391 24.041 68.5984 24.267 68.9436 24.5955C69.3029 24.9376 69.547 25.3101 69.6757 25.713C69.8072 26.1132 69.8295 26.5119 69.7426 26.9091C69.6612 27.3062 69.4768 27.67 69.1893 28.0004L68.4423 27.2894C68.6086 27.0863 68.7178 26.864 68.7699 26.6223C68.8247 26.3834 68.816 26.1432 68.7438 25.9018C68.677 25.6603 68.5389 25.4399 68.3296 25.2407C68.0891 25.0117 67.841 24.8673 67.5853 24.8073C67.3351 24.7472 67.0852 24.752 66.8355 24.8217C66.5913 24.8913 66.3551 25.0035 66.1268 25.1583C65.9041 25.313 65.6971 25.4908 65.5059 25.6917L65.3362 25.87C65.145 26.0709 64.9763 26.2878 64.8301 26.5207C64.6839 26.7537 64.5821 26.9938 64.5246 27.2411C64.47 27.4911 64.4776 27.741 64.5473 27.9907C64.6225 28.2403 64.7818 28.4809 65.0252 28.7125Z" fill="black"/>
<path d="M68.0329 35.0252C67.8053 34.6469 67.6625 34.2656 67.6044 33.8811C67.5517 33.498 67.5761 33.1255 67.6775 32.7636C67.7809 32.4051 67.958 32.0706 68.2089 31.7601C68.4597 31.4497 68.776 31.1796 69.1575 30.9501L69.3684 30.8232C69.8102 30.5574 70.2428 30.3861 70.6661 30.3092C71.0927 30.2303 71.494 30.2305 71.8699 30.3098C72.2459 30.3891 72.5813 30.5337 72.8763 30.7437C73.1713 30.9537 73.4105 31.211 73.5937 31.5156C73.8273 31.9039 73.9617 32.2789 73.997 32.6406C74.0343 33.0057 73.9868 33.3511 73.8545 33.6768C73.7256 34.0005 73.525 34.3036 73.2527 34.5859C72.9837 34.8663 72.6584 35.1212 72.2768 35.3508L71.8601 35.6015L69.4195 31.5447L70.1776 31.0886L72.0594 34.2165L72.1297 34.1742C72.3627 34.0159 72.5668 33.8247 72.742 33.6007C72.9193 33.3801 73.0262 33.1335 73.0627 32.8608C73.0992 32.5881 73.0219 32.2927 72.8306 31.9747C72.7037 31.7639 72.5417 31.5969 72.3446 31.4739C72.1509 31.3488 71.9287 31.2751 71.6781 31.2526C71.4275 31.2301 71.1556 31.2592 70.8623 31.34C70.5689 31.4207 70.2583 31.5597 69.9302 31.7571L69.7194 31.884C69.4616 32.039 69.2401 32.2201 69.0548 32.4274C68.8748 32.6359 68.7408 32.8602 68.6526 33.1001C68.5665 33.3434 68.5343 33.593 68.556 33.8488C68.5798 34.1081 68.6682 34.3649 68.8212 34.6193C69.0186 34.9473 69.2526 35.1848 69.5235 35.3319C69.7943 35.479 70.0932 35.5704 70.4201 35.6062L70.3116 36.4373C70.0637 36.4269 69.805 36.3797 69.5356 36.2956C69.2662 36.2115 69.0018 36.0674 68.7423 35.8634C68.4848 35.6627 68.2483 35.3833 68.0329 35.0252Z" fill="black"/>
<path d="M71.9701 41.7776C72.1204 41.7349 72.2498 41.6615 72.3582 41.5575C72.4716 41.4562 72.552 41.2892 72.5994 41.0563C72.6517 40.8262 72.6601 40.4989 72.6246 40.0745C72.5998 39.716 72.5972 39.3857 72.6168 39.0837C72.6375 38.7854 72.6901 38.5206 72.7746 38.2895C72.8602 38.062 72.9824 37.8709 73.1414 37.716C73.3004 37.5611 73.5058 37.4478 73.7575 37.3762C73.9979 37.3078 74.2402 37.2957 74.4843 37.3399C74.7295 37.388 74.9625 37.4861 75.1834 37.6345C75.4054 37.7865 75.6029 37.9882 75.7759 38.2395C75.949 38.4908 76.0841 38.7874 76.1814 39.1293C76.3204 39.6177 76.3527 40.0594 76.2782 40.4542C76.2038 40.849 76.0481 41.1797 75.8112 41.4461C75.578 41.7114 75.2867 41.8938 74.9373 41.9932L74.6406 40.9507C74.8097 40.9025 74.9587 40.8053 75.0876 40.659C75.2214 40.5153 75.3136 40.3327 75.3643 40.1112C75.416 39.8934 75.4029 39.6473 75.3248 39.3731C75.2425 39.0838 75.1306 38.8618 74.9891 38.7071C74.8524 38.5551 74.7047 38.457 74.5459 38.4129C74.3882 38.3725 74.2342 38.3736 74.084 38.4164C73.9712 38.4485 73.8751 38.4961 73.7957 38.5594C73.721 38.6253 73.6605 38.7197 73.6143 38.8425C73.5718 38.9642 73.5448 39.1262 73.5333 39.3285C73.5218 39.5308 73.5247 39.7838 73.5421 40.0875C73.5716 40.6193 73.5534 41.0692 73.4876 41.4372C73.4217 41.8052 73.2967 42.1007 73.1124 42.3237C72.9281 42.5467 72.6725 42.7047 72.3457 42.7978C72.0789 42.8737 71.8187 42.8868 71.5649 42.8372C71.3122 42.7913 71.0752 42.6862 70.8538 42.5217C70.6372 42.36 70.4426 42.1473 70.2701 41.8837C70.1025 41.6227 69.9678 41.3138 69.8663 40.9569C69.7134 40.4196 69.6798 39.9377 69.7656 39.5113C69.8514 39.0848 70.0191 38.7324 70.2689 38.4542C70.5187 38.176 70.8127 37.9888 71.1508 37.8926L71.4491 38.9408C71.1679 39.0371 70.9641 39.1844 70.8378 39.3828C70.7152 39.5801 70.6493 39.7979 70.6399 40.0361C70.6343 40.2733 70.6619 40.4989 70.7229 40.7131C70.8041 40.9986 70.9096 41.2265 71.0393 41.3967C71.17 41.5707 71.3156 41.6897 71.4759 41.7538C71.6363 41.8178 71.801 41.8257 71.9701 41.7776Z" fill="black"/>
<path d="M74.1696 50.2863L74.4069 50.3239C74.7387 50.3764 74.9962 50.5239 75.1792 50.7665C75.3617 51.0129 75.4242 51.3174 75.3668 51.6801C75.3088 52.0466 75.155 52.3189 74.9053 52.4969C74.6557 52.6749 74.3649 52.7376 74.0331 52.6851L73.7959 52.6475C73.4679 52.5956 73.2127 52.4465 73.0302 52.2C72.851 51.9581 72.7904 51.6539 72.8484 51.2874C72.9058 50.9247 73.0575 50.654 73.3032 50.4754C73.5529 50.2974 73.8417 50.2344 74.1696 50.2863Z" fill="black"/>
</svg>
